<?xml version="1.0" encoding="utf-8"?>
<!-- Generator: Adobe Illustrator 16.0.0, SVG Export Plug-In . SVG Version: 6.00 Build 0)  -->
<!DOCTYPE svg PUBLIC "-//W3C//DTD SVG 1.1//EN" "http://www.w3.org/Graphics/SVG/1.1/DTD/svg11.dtd">
<svg version="1.1" id="Layer_1" xmlns="http://www.w3.org/2000/svg" xmlns:xlink="http://www.w3.org/1999/xlink" x="0px" y="0px"
	 width="300px" height="300px" viewBox="5.001 325.963 300 300" enable-background="new 5.001 325.963 300 300"
	 xml:space="preserve">
<circle fill="#F9F9F9" cx="155" cy="475.963" r="4.446"/>
<g>
	<path d="M220.232,354.963H89.77c-30.751,0-55.77,25.019-55.77,55.77v130.461c0,30.752,25.018,55.77,55.77,55.77h130.463
		c30.751,0,55.77-25.018,55.77-55.77V410.732C276.002,379.981,250.983,354.963,220.232,354.963z M246.002,541.193
		c0,14.209-11.561,25.77-25.77,25.77H89.77c-14.209,0-25.77-11.561-25.77-25.77V410.732c0-14.209,11.56-25.77,25.77-25.77h130.463
		c14.209,0,25.77,11.561,25.77,25.77V541.193z"/>
	<path d="M177.625,475.681c12.438-12.753,24.874-25.505,37.312-38.257c0.792-0.812,1.583-1.623,2.375-2.436
		c6.086-6.239,6.222-16.405,0-22.627c-6.106-6.106-16.54-6.242-22.627,0c-13.322,13.659-26.645,27.318-39.966,40.978
		c-12.752-12.438-25.504-24.874-38.256-37.312c-0.812-0.792-1.624-1.583-2.436-2.375c-6.24-6.086-16.406-6.222-22.628,0
		c-6.106,6.106-6.242,16.539,0,22.627c13.66,13.322,27.319,26.645,40.979,39.967c-12.437,12.752-24.874,25.504-37.312,38.256
		c-0.792,0.812-1.583,1.623-2.375,2.436c-6.086,6.239-6.222,16.405,0,22.627c6.106,6.106,16.54,6.242,22.627,0
		c13.322-13.659,26.644-27.318,39.965-40.978c12.752,12.438,25.504,24.874,38.257,37.312c0.812,0.792,1.623,1.583,2.436,2.375
		c6.239,6.086,16.405,6.222,22.627,0c6.106-6.106,6.242-16.539,0-22.627C204.943,502.324,191.284,489.002,177.625,475.681z"/>
</g>
</svg>
