<?xml version="1.0" encoding="utf-8"?>
<!-- Generator: Adobe Illustrator 16.0.0, SVG Export Plug-In . SVG Version: 6.00 Build 0)  -->
<!DOCTYPE svg PUBLIC "-//W3C//DTD SVG 1.1//EN" "http://www.w3.org/Graphics/SVG/1.1/DTD/svg11.dtd">
<svg version="1.1" id="Layer_1" xmlns="http://www.w3.org/2000/svg" xmlns:xlink="http://www.w3.org/1999/xlink" x="0px" y="0px"
	 width="300px" height="300px" viewBox="-309.983 333.463 300 300" enable-background="new -309.983 333.463 300 300"
	 xml:space="preserve">
<g>
	<path d="M-48.09,387.768l-20.894,30.71v130.216c0,14.209-11.56,25.77-25.769,25.77h-130.462c-14.209,0-25.769-11.561-25.769-25.77
		V418.232c0-14.209,11.56-25.77,25.769-25.77h130.462c0.94,0,1.868,0.054,2.783,0.152c0.577-0.521,1.154-1.045,1.726-1.556
		c4.03-3.574,7.424-6.475,10.684-9.126c3.758-3.112,7.602-6.048,11.196-8.755c1.012-0.743,2.045-1.497,3.093-2.256
		c-8.56-5.354-18.662-8.46-29.48-8.46h-130.462c-30.751,0-55.769,25.019-55.769,55.77v130.461c0,30.752,25.018,55.77,55.769,55.77
		h130.462c30.751,0,55.769-25.018,55.769-55.77V418.232c0-11.241-3.354-21.709-9.099-30.477L-48.09,387.768z"/>
	<path d="M-84.424,388.474c-3.509,2.854-6.905,5.788-10.25,8.757c-3.334,2.977-6.591,6.008-9.784,9.084
		c-3.179,3.085-6.309,6.206-9.352,9.387c-1.549,1.571-3.026,3.193-4.524,4.8l-2.242,2.414l-2.188,2.453
		c-2.944,3.25-5.762,6.59-8.589,9.922l-4.149,5.063c-1.386,1.686-2.702,3.421-4.056,5.129l-2.017,2.571l-1.96,2.611
		c-1.299,1.747-2.632,3.47-3.904,5.235c-2.539,3.535-5.097,7.057-7.527,10.668c-2.495,3.565-4.832,7.242-7.224,10.88
		c-2.305,3.699-4.643,7.375-6.842,11.148c-0.056,0.093-0.11,0.187-0.166,0.28c-0.722-0.296-1.445-0.591-2.181-0.868
		c-1.781-0.686-3.545-1.393-5.359-2.037c-1.798-0.665-3.604-1.318-5.439-1.935c-1.817-0.64-3.672-1.231-5.524-1.827
		c-1.852-0.596-3.735-1.15-5.619-1.705l-5.731-1.562c-1.887-0.551-3.893-0.95-5.836-1.429c-1.939-0.484-3.951-0.875-5.958-1.271
		c-1.984-0.427-4.062-0.733-6.107-1.082c-2.074-0.312-4.182-0.579-6.352-0.77l-2.465,3.15l8.403,7.032l8.453,6.969l8.453,6.97
		c2.807,2.336,5.664,4.609,8.5,6.909l17.039,13.768l8.52,6.884c2.83,2.308,5.705,4.558,8.566,6.825l3.062,2.426l2.283-3.22
		l30.205-42.604c5.043-7.094,9.953-14.282,14.936-21.418l14.897-21.446l7.448-10.723c2.497-3.564,4.937-7.169,7.385-10.768
		l14.69-21.591l7.345-10.796l7.249-10.862l7.247-10.865c2.429-3.611,4.785-7.274,7.182-10.91l-3.274-2.297
		c-2.321,1.028-4.564,2.113-6.724,3.256l-3.23,1.721l-3.129,1.792c-2.115,1.174-4.099,2.439-6.12,3.68
		c-2.045,1.224-3.969,2.531-5.917,3.823c-3.941,2.551-7.667,5.253-11.37,7.971C-77.329,382.82-80.95,385.596-84.424,388.474z"/>
</g>
</svg>
