<?xml version="1.0" encoding="utf-8"?>
<!-- Generator: Adobe Illustrator 16.0.0, SVG Export Plug-In . SVG Version: 6.00 Build 0)  -->
<!DOCTYPE svg PUBLIC "-//W3C//DTD SVG 1.1//EN" "http://www.w3.org/Graphics/SVG/1.1/DTD/svg11.dtd">
<svg version="1.1" id="Layer_1" xmlns="http://www.w3.org/2000/svg" xmlns:xlink="http://www.w3.org/1999/xlink" x="0px" y="0px"
	 width="300px" height="300px" viewBox="-309.983 333.463 300 300" enable-background="new -309.983 333.463 300 300"
	 xml:space="preserve">
<path d="M-14.731,396.5l-24-52l-24.667,27.64c-8.941-6.102-19.737-9.677-31.354-9.677h-130.462
	c-30.751,0-55.769,25.019-55.769,55.77v130.461c0,30.752,25.018,55.77,55.769,55.77h130.462c30.751,0,55.769-25.018,55.769-55.77
	V418.232c0-0.097-0.007-0.191-0.007-0.288L-14.731,396.5z M-68.983,548.693c0,14.209-11.56,25.77-25.769,25.77h-130.462
	c-14.209,0-25.769-11.561-25.769-25.77V418.232c0-14.209,11.56-25.77,25.769-25.77h130.462c3.936,0,7.667,0.891,11.007,2.476
	l-73.792,82.684l-51.194-55.122l-15.689,5.67l62.452,98.481l92.985-82.194V548.693z"/>
</svg>
