<?xml version="1.0" encoding="utf-8"?>
<!-- Generator: Adobe Illustrator 16.0.0, SVG Export Plug-In . SVG Version: 6.00 Build 0)  -->
<!DOCTYPE svg PUBLIC "-//W3C//DTD SVG 1.1//EN" "http://www.w3.org/Graphics/SVG/1.1/DTD/svg11.dtd">
<svg version="1.1" id="Layer_1" xmlns="http://www.w3.org/2000/svg" xmlns:xlink="http://www.w3.org/1999/xlink" x="0px" y="0px"
	 width="300px" height="300px" viewBox="316.5 4.5 300 300" enable-background="new 316.5 4.5 300 300" xml:space="preserve">
<path d="M466.5,9.5c-80.064,0-145,64.947-145,145.026c0,80.083,64.936,144.974,145,144.974c80.11,0,145-64.891,145-144.974
	C611.5,74.447,546.61,9.5,466.5,9.5z M421.56,219.936c-10.541,0-19.077-8.568-19.077-19.084s8.536-19.085,19.077-19.085
	c10.493,0,19.022,8.569,19.022,19.085S432.053,219.936,421.56,219.936z M469.383,220.037c0-17.955-6.998-34.886-19.645-47.606
	c-12.596-12.619-29.365-19.647-47.256-19.647v-27.547c52.042,0,94.405,42.581,94.405,94.801H469.383z M517.967,220.037
	c0-63.92-51.775-116.04-115.429-116.04V76.501c78.822,0,142.942,64.435,142.942,143.536H517.967z"/>
</svg>
