<?xml version="1.0" encoding="utf-8"?>
<!-- Generator: Adobe Illustrator 16.0.0, SVG Export Plug-In . SVG Version: 6.00 Build 0)  -->
<!DOCTYPE svg PUBLIC "-//W3C//DTD SVG 1.1//EN" "http://www.w3.org/Graphics/SVG/1.1/DTD/svg11.dtd">
<svg version="1.1" id="Layer_1" xmlns="http://www.w3.org/2000/svg" xmlns:xlink="http://www.w3.org/1999/xlink" x="0px" y="0px"
	 width="300px" height="300px" viewBox="-629.467 334.963 300 300" enable-background="new -629.467 334.963 300 300"
	 xml:space="preserve">
<path d="M-414.236,605.963h-130.462c-30.751,0-55.769-25.018-55.769-55.77V419.732c0-30.751,25.018-55.77,55.769-55.77h130.462
	c30.751,0,55.769,25.019,55.769,55.77v130.461C-358.467,580.945-383.485,605.963-414.236,605.963z M-544.698,393.963
	c-14.209,0-25.769,11.561-25.769,25.77v130.461c0,14.209,11.56,25.77,25.769,25.77h130.462c14.209,0,25.769-11.561,25.769-25.77
	V419.732c0-14.209-11.56-25.77-25.769-25.77H-544.698z"/>
</svg>
