<?xml version="1.0" encoding="utf-8"?>
<!-- Generator: Adobe Illustrator 16.0.0, SVG Export Plug-In . SVG Version: 6.00 Build 0)  -->
<!DOCTYPE svg PUBLIC "-//W3C//DTD SVG 1.1//EN" "http://www.w3.org/Graphics/SVG/1.1/DTD/svg11.dtd">
<svg version="1.1" id="Layer_1" xmlns="http://www.w3.org/2000/svg" xmlns:xlink="http://www.w3.org/1999/xlink" x="0px" y="0px"
	 width="300px" height="300px" viewBox="-302 16 300 300" enable-background="new -302 16 300 300" xml:space="preserve">
<g>
	<path d="M-120.49,123.425c-1.762,0.296-2.953,1.96-2.658,3.717c0.296,1.755,1.967,2.938,3.729,2.642
		c1.763-0.296,2.951-1.961,2.655-3.717C-117.059,124.311-118.726,123.128-120.49,123.425z M-119.711,127.436
		c-0.811,0.136-1.58-0.408-1.717-1.219c-0.136-0.81,0.413-1.577,1.227-1.715c0.812-0.136,1.583,0.408,1.717,1.219
		C-118.347,126.53-118.897,127.299-119.711,127.436z"/>
	<path d="M-152,21c-80.064,0-145,64.947-145,145.026C-297,246.109-232.064,311-152,311c80.11,0,145-64.891,145-144.974
		C-7,85.947-71.89,21-152,21z M-110.098,137.078c-4.142,0.148-7.158-0.53-10.902,1.661c-3.824,2.239-5.661,5.918-7.018,10.007
		c-0.118,0.357-0.101,0.873,0.06,1.213c0.876,1.863,0.194,3.641-0.065,5.462c-0.523,3.658-3.156,6.243-4.261,9.627
		c-0.69,2.124-1.339,4.295-2.464,6.268c-2.354,4.13-5.154,7.877-8.027,11.628c-7.932,10.347-15.782,20.763-23.74,31.089
		c-1.259,1.632-2.886,3.154-3.471,5.325c-0.858,3.183-1.193,6.452-1.133,9.76c0.064,3.412,1.524,6.319,3.86,8.553
		c1.449,1.389,2.998,2.685,4.281,4.24c1.041,1.266,2.391,2.341,2.898,4.008c4.705,5.018,8.425,10.824,12.392,16.419
		c1.492,2.104-1.971,4.094-3.444,2.014c-3.481-4.911-6.745-9.993-10.739-14.5c-0.527-0.06-1.012-0.655-1.334-1.169
		c-2.688-4.31-6.393-7.604-9.98-11.012c-2.71-2.575-4.155-5.437-2.939-9.373c1.271-4.104,1.189-8.396,0.829-12.683
		c-0.126-1.48-0.876-2.176-2.26-1.817c-1.245,0.321-2.438,0.844-1.543-1.397c0.165-0.413-0.33-0.463-0.622-0.607
		c-1.327-0.656-2.679-0.39-3.828,0.2c-2.238,1.152-4.643,1.461-6.98,2.235c-3.768,0.634-7.523,1.35-11.307,1.878
		c-3.554,0.497-6.56,2.231-9.039,4.663c-4.07,3.991-7.313,8.682-9.084,14.353c-0.489,1.565-1.227,3.043-1.679,4.616
		c-1.888,6.564-5.531,12.522-5.939,19.595c-0.008,0.134-0.042,0.28-0.105,0.395c-0.677,1.183-0.562,2.283,0.115,3.49
		c0.494,0.881,0.466,1.886-0.429,2.599c-0.795,0.633-1.587,1.274-2.66,0.509c-0.324-0.229-0.774-0.624-1.035-0.535
		c-2.504,0.852-2.579-0.747-2.495-2.583c0.019-0.408-0.071-0.824-0.118-1.235c-0.324-2.753,0.876-5.232,1.298-7.844
		c0.295-1.825,1.318-3.465,0.483-5.44c-0.371-0.876,0.021-1.345,0.96-1.11c0.796,0.201,1.395,0.067,1.815-0.757
		c1.727-3.388,3.363-6.821,4.626-10.438c1.862-5.341,3.771-10.665,5.563-16.032c0.634-1.899,1.978-3.034,3.604-3.467
		c3.681-0.976,6.814-2.717,9.257-5.753c0.521-0.648,1.764-0.987,1.392-1.998c-0.314-0.858-1.441-1.304-2.299-1.429
		c-4.587-0.664-9.145-1.044-13.436,1.404c-1.845,1.054-4.588,0.526-5.749-0.771c-1.306-1.459-1.499-3.862-0.432-6.014
		c0.423-0.849,0.924-1.658,1.438-2.45c1.138-1.763,2.173-3.583,3.123-5.469c0.627-1.242,0.477-1.98-0.471-3.047
		c-2.42-2.721-4.139-5.781-3.418-9.754c0.367-2.016-0.498-3.8-1.567-5.435c-0.453-0.695-0.803-1.404-1.102-2.189
		c-1.414-3.7-1.522-7.691-2.57-11.469c-0.132-0.483-0.21-1.193,0.3-1.255c2.485-0.296,1.762-4.142,4.376-4.219
		c0.385-1.805,1.308-0.859,1.973-0.305c2.022,1.689,3.938,3.524,5.987,5.18c2.408,1.947,4.01,4.392,4.885,7.417
		c0.458,1.586,1.016,3.151,1.633,4.682c0.435,1.083,1.278,1.695,2.396,1.131c2.356-1.186,4.834-2.038,7.143-3.408
		c6.699-3.979,12.576-9.479,20.574-11.104c4.085-0.83,8.02-2.464,12.216-3.016c3.726-0.489,7.424-1.169,11.135-1.757
		c0.521-0.082,1.07-0.262,1.567-0.161c3.444,0.703,6.669-0.489,9.936-1.13c1.802-0.354,3.723-1.22,4.694-2.799
		c1.627-2.645,3.838-4.847,5.146-7.708c1.978-4.328,2.953-9.115,5.272-13.276c1.667-2.987,2.925-6.228,5.679-8.515
		c3.549-2.946,9.146-3.083,13.256,0.458c2.749,2.367,4.376,4.091,7.632,5.822c-2.824,0.74-3.916,1.48-4.93,1.65
		C-111.457,130-109.487,137.057-110.098,137.078z M-106.979,93.704c-6.063-1.932-12.848-2.582-18.796,0.118
		c-3.1,1.407-5.807-3.178-2.687-4.594c7.431-3.373,16.067-3.192,23.676-0.387c6.271,2.312,12.939,6.089,15.997,12.332
		c1.504,3.069-3.084,5.767-4.594,2.686C-95.91,98.698-101.686,95.391-106.979,93.704z M-108.845,111.05
		c-2.826-3.123-7.127-4.62-11.209-3.303c-2.619,0.846-3.732-3.266-1.131-4.104c5.438-1.756,11.562,0.212,15.351,4.396
		C-103.998,110.069-106.998,113.089-108.845,111.05z M-87.536,139.995c-1.173,0.148-2.654,0.219-3.886-0.09
		c-4.493-1.123-8.878-2.699-13.25-3.74c-1.063-0.253-3.654,0.021-3.654,0.021l-0.989-4.853l4.452-1.869c0,0,0.994,0.301,1.131,0.372
		c3.551,1.819,13.493,5.749,14.165,6.26c0.395,0.301,1.697,0.632,2.733,1.544c0.724,0.636,1.336,1.983,1.336,1.983
		S-86.361,139.849-87.536,139.995z M-76.501,95.817c-12.298-18.59-36.491-27.6-57.404-18.88c-3.799,1.585-5.44-4.596-1.697-6.157
		c23.597-9.84,50.887,1.062,64.615,21.814C-68.709,96.04-74.24,99.234-76.501,95.817z M-59.853,88.31
		c-12.702-30.264-52.99-43.258-82.065-29.777c-4.123,1.911-7.729-4.203-3.58-6.126c33.599-15.578,77.905-0.723,92.487,34.017
		C-51.24,90.64-58.108,92.461-59.853,88.31z"/>
</g>
</svg>
