<?xml version="1.0" encoding="utf-8"?>
<!-- Generator: Adobe Illustrator 16.0.0, SVG Export Plug-In . SVG Version: 6.00 Build 0)  -->
<!DOCTYPE svg PUBLIC "-//W3C//DTD SVG 1.1//EN" "http://www.w3.org/Graphics/SVG/1.1/DTD/svg11.dtd">
<svg version="1.1" id="Layer_1" xmlns="http://www.w3.org/2000/svg" xmlns:xlink="http://www.w3.org/1999/xlink" x="0px" y="0px"
	 width="300px" height="300px" viewBox="5.001 325.963 300 300" enable-background="new 5.001 325.963 300 300"
	 xml:space="preserve">
<circle fill="#F9F9F9" cx="155" cy="475.963" r="4.446"/>
<g>
	<path d="M220.232,354.963H89.77c-30.751,0-55.77,25.019-55.77,55.77v130.461c0,30.752,25.018,55.77,55.77,55.77h130.463
		c30.751,0,55.77-25.018,55.77-55.77V410.732C276.002,379.981,250.983,354.963,220.232,354.963z M246.002,541.193
		c0,14.209-11.561,25.77-25.77,25.77H89.77c-14.209,0-25.77-11.561-25.77-25.77V410.732c0-14.209,11.56-25.77,25.77-25.77h130.463
		c14.209,0,25.77,11.561,25.77,25.77V541.193z"/>
	<polygon points="224.96,424.235 203.233,403.55 154.143,455.111 100.977,407.762 81.025,430.164 133.445,476.851 85.042,527.69 
		106.769,548.376 155.859,496.814 209.024,544.164 228.978,521.762 176.557,475.075 	"/>
</g>
</svg>
