<?xml version="1.0" encoding="utf-8"?>
<!-- Generator: Adobe Illustrator 16.0.0, SVG Export Plug-In . SVG Version: 6.00 Build 0)  -->
<!DOCTYPE svg PUBLIC "-//W3C//DTD SVG 1.1//EN" "http://www.w3.org/Graphics/SVG/1.1/DTD/svg11.dtd">
<svg version="1.1" id="Layer_1" xmlns="http://www.w3.org/2000/svg" xmlns:xlink="http://www.w3.org/1999/xlink" x="0px" y="0px"
	 width="300px" height="300px" viewBox="350.339 647.437 300 300" enable-background="new 350.339 647.437 300 300"
	 xml:space="preserve">
<path d="M565.744,772.902c0,11.838-4.004,22.781-12.01,32.83c-8.004,10.049-18.926,17.991-32.766,23.824
	c-13.838,5.834-28.893,8.751-45.158,8.751c-7.322,0-14.818-0.682-22.482-2.044c-10.561,7.494-22.398,12.945-35.514,16.352
	c-3.064,0.767-6.727,1.448-10.986,2.044h-0.383c-0.938,0-1.809-0.341-2.619-1.022c-0.809-0.681-1.299-1.574-1.469-2.683
	c-0.084-0.255-0.127-0.531-0.127-0.83c0-0.298,0.021-0.574,0.064-0.83c0.041-0.256,0.127-0.511,0.254-0.767l0.32-0.639
	c0,0,0.148-0.234,0.447-0.702c0.297-0.469,0.469-0.682,0.512-0.639c0.041,0.042,0.232-0.171,0.574-0.639
	c0.34-0.469,0.51-0.66,0.512-0.575c0.426-0.512,1.404-1.576,2.938-3.194c1.533-1.617,2.641-2.874,3.322-3.768
	c0.68-0.895,1.639-2.129,2.873-3.705c1.234-1.575,2.299-3.215,3.193-4.918s1.768-3.576,2.619-5.621
	c-10.561-6.132-18.863-13.668-24.91-22.61s-9.07-18.48-9.07-28.615c0-11.838,4.004-22.781,12.008-32.83
	c8.006-10.049,18.928-17.991,32.768-23.824c13.838-5.834,28.891-8.751,45.158-8.751c16.266,0,31.318,2.917,45.156,8.751
	c13.84,5.833,24.762,13.775,32.768,23.824S565.744,761.064,565.744,772.902L565.744,772.902z M614.797,805.604
	c0,10.221-3.021,19.78-9.068,28.68s-14.35,16.415-24.91,22.547c0.852,2.044,1.725,3.918,2.617,5.621
	c0.895,1.702,1.959,3.342,3.195,4.918c1.234,1.575,2.191,2.811,2.873,3.705c0.682,0.894,1.789,2.149,3.322,3.768
	s2.512,2.683,2.938,3.193c0.086,0.086,0.256,0.277,0.512,0.575s0.447,0.511,0.574,0.639s0.299,0.341,0.512,0.639
	c0.213,0.299,0.361,0.532,0.447,0.702l0.318,0.64c0,0,0.086,0.255,0.256,0.767c0.17,0.511,0.191,0.788,0.064,0.83
	c-0.129,0.042-0.17,0.318-0.129,0.83c-0.256,1.192-0.809,2.129-1.66,2.811c-0.852,0.681-1.789,0.979-2.811,0.894
	c-4.258-0.596-7.92-1.277-10.986-2.043c-13.115-3.407-24.953-8.857-35.514-16.352c-7.664,1.362-15.158,2.043-22.482,2.043
	c-23.078,0-43.178-5.62-60.295-16.861c4.939,0.34,8.686,0.511,11.242,0.511c13.711,0,26.869-1.917,39.473-5.748
	c12.604-3.833,23.846-9.326,33.725-16.479c10.645-7.836,18.82-16.862,24.525-27.082c5.707-10.22,8.561-21.036,8.561-32.447
	c0-6.558-0.979-13.03-2.938-19.418c10.984,6.047,19.672,13.626,26.059,22.739c6.389,9.112,9.582,18.906,9.582,29.381H614.797z"/>
</svg>
