<?xml version="1.0" encoding="utf-8"?>
<!-- Generator: Adobe Illustrator 16.0.0, SVG Export Plug-In . SVG Version: 6.00 Build 0)  -->
<!DOCTYPE svg PUBLIC "-//W3C//DTD SVG 1.1//EN" "http://www.w3.org/Graphics/SVG/1.1/DTD/svg11.dtd">
<svg version="1.1" id="Layer_1" xmlns="http://www.w3.org/2000/svg" xmlns:xlink="http://www.w3.org/1999/xlink" x="0px" y="0px"
	 width="300px" height="300px" viewBox="-636.726 648.437 300 300" enable-background="new -636.726 648.437 300 300"
	 xml:space="preserve">
<path d="M-395.257,835.783l-11.607-12.06l-15.73-15.74c2.777-8.416,4.33-17.369,4.33-26.7c0-47.199-38.404-85.616-85.615-85.616
	s-85.615,38.417-85.615,85.616c0,47.198,38.404,85.615,85.615,85.615c9.332,0,18.297-1.553,26.713-4.33l9.172,9.161l19.227,19.215
	l0.797,0.673c7.35,6.188,16.486,9.589,25.732,9.589c21.111,0,38.283-17.173,38.283-38.295
	C-383.956,852.638-387.968,843-395.257,835.783L-395.257,835.783z M-565.034,781.283c0-33.722,27.434-61.154,61.154-61.154
	s61.154,27.433,61.154,61.154c0,33.72-27.434,61.153-61.154,61.153S-565.034,815.003-565.034,781.283z"/>
</svg>
