<?xml version="1.0" encoding="utf-8"?>
<!-- Generator: Adobe Illustrator 16.0.0, SVG Export Plug-In . SVG Version: 6.00 Build 0)  -->
<!DOCTYPE svg PUBLIC "-//W3C//DTD SVG 1.1//EN" "http://www.w3.org/Graphics/SVG/1.1/DTD/svg11.dtd">
<svg version="1.1" id="Layer_1" xmlns="http://www.w3.org/2000/svg" xmlns:xlink="http://www.w3.org/1999/xlink" x="0px" y="0px"
	 width="300px" height="300px" viewBox="-629.5 18.5 300 300" enable-background="new -629.5 18.5 300 300" xml:space="preserve">
<g>
	<g>
		<path d="M-388.971,98.468c-14.582-34.74-58.889-49.595-92.486-34.017c-4.148,1.923-0.543,8.037,3.58,6.126
			c29.074-13.48,69.363-0.486,82.064,29.777C-394.068,104.507-387.199,102.685-388.971,98.468z"/>
		<path d="M-471.563,82.826c-3.742,1.561-2.102,7.742,1.697,6.157c20.914-8.72,45.107,0.29,57.404,18.88
			c2.262,3.417,7.793,0.222,5.514-3.222C-420.676,83.888-447.965,72.986-471.563,82.826z"/>
		<path d="M-440.744,100.886c-7.609-2.806-16.246-2.986-23.676,0.387c-3.121,1.417-0.414,6.001,2.686,4.594
			c5.949-2.7,12.732-2.049,18.797-0.118c5.293,1.687,11.068,4.994,13.596,10.154c1.51,3.081,6.098,0.383,4.594-2.686
			C-427.805,106.975-434.473,103.198-440.744,100.886z"/>
		<path d="M-457.145,115.688c-2.602,0.838-1.488,4.95,1.131,4.104c4.082-1.317,8.383,0.18,11.209,3.303
			c1.848,2.039,4.848-0.98,3.012-3.011C-445.582,115.9-451.705,113.932-457.145,115.688z"/>
	</g>
	<g>
		
			<ellipse transform="matrix(-0.1648 -0.9863 0.9863 -0.1648 -667.1877 -288.9171)" cx="-455.915" cy="138.014" rx="1.487" ry="1.492"/>
		<path d="M-446.879,142.242c1.014-0.17,2.105-0.91,4.93-1.65c-3.256-1.731-4.883-3.455-7.633-5.822
			c-4.109-3.541-9.707-3.404-13.256-0.458c-2.754,2.287-4.012,5.527-5.678,8.515c-2.32,4.161-3.295,8.948-5.273,13.276
			c-1.307,2.861-3.518,5.064-5.145,7.709c-0.973,1.578-2.893,2.443-4.695,2.799c-3.266,0.641-6.49,1.832-9.936,1.129
			c-0.496-0.1-1.047,0.08-1.566,0.162c-3.711,0.588-7.41,1.268-11.135,1.756c-4.197,0.553-8.131,2.186-12.217,3.016
			c-7.998,1.625-13.875,7.125-20.574,11.105c-2.309,1.369-4.785,2.223-7.143,3.408c-1.117,0.564-1.961-0.049-2.395-1.131
			c-0.617-1.531-1.176-3.096-1.633-4.682c-0.875-3.025-2.477-5.471-4.885-7.418c-2.049-1.654-3.965-3.49-5.988-5.18
			c-0.664-0.555-1.588-1.5-1.973,0.305c-2.613,0.078-1.891,3.924-4.375,4.219c-0.51,0.063-0.432,0.771-0.301,1.256
			c1.049,3.777,1.156,7.768,2.57,11.469c0.299,0.785,0.648,1.494,1.102,2.189c1.07,1.635,1.936,3.418,1.568,5.434
			c-0.721,3.973,0.998,7.033,3.418,9.754c0.947,1.066,1.098,1.805,0.471,3.047c-0.951,1.887-1.986,3.707-3.123,5.469
			c-0.516,0.793-1.016,1.602-1.439,2.451c-1.066,2.15-0.873,4.555,0.432,6.014c1.162,1.297,3.904,1.824,5.75,0.771
			c4.291-2.449,8.848-2.068,13.436-1.404c0.857,0.125,1.984,0.57,2.299,1.428c0.371,1.012-0.871,1.35-1.393,1.998
			c-2.441,3.037-5.576,4.777-9.256,5.754c-1.627,0.432-2.971,1.566-3.604,3.467c-1.793,5.367-3.701,10.691-5.564,16.031
			c-1.262,3.617-2.898,7.051-4.625,10.439c-0.422,0.824-1.02,0.957-1.816,0.756c-0.938-0.234-1.33,0.234-0.959,1.111
			c0.834,1.975-0.189,3.615-0.484,5.439c-0.422,2.611-1.621,5.092-1.297,7.844c0.047,0.412,0.137,0.828,0.117,1.236
			c-0.084,1.836-0.008,3.434,2.496,2.582c0.26-0.088,0.711,0.307,1.035,0.535c1.072,0.766,1.865,0.125,2.66-0.508
			c0.895-0.713,0.922-1.719,0.428-2.6c-0.676-1.207-0.791-2.307-0.115-3.49c0.064-0.113,0.098-0.26,0.105-0.395
			c0.408-7.072,4.053-13.029,5.939-19.594c0.453-1.574,1.189-3.051,1.68-4.617c1.771-5.67,5.014-10.361,9.084-14.352
			c2.479-2.432,5.484-4.166,9.039-4.664c3.783-0.527,7.539-1.244,11.307-1.877c2.338-0.775,4.742-1.084,6.98-2.236
			c1.148-0.59,2.5-0.855,3.828-0.199c0.291,0.145,0.787,0.193,0.621,0.607c-0.895,2.24,0.299,1.719,1.543,1.396
			c1.385-0.357,2.135,0.338,2.26,1.818c0.361,4.287,0.443,8.578-0.828,12.682c-1.217,3.938,0.229,6.799,2.939,9.373
			c3.588,3.408,7.293,6.703,9.98,11.012c0.322,0.514,0.807,1.109,1.334,1.17c3.994,4.506,7.258,9.588,10.738,14.5
			c1.475,2.08,4.938,0.09,3.445-2.014c-3.967-5.596-7.688-11.402-12.393-16.42c-0.508-1.666-1.857-2.742-2.898-4.008
			c-1.283-1.555-2.832-2.852-4.281-4.24c-2.336-2.232-3.795-5.141-3.859-8.553c-0.061-3.307,0.273-6.576,1.133-9.76
			c0.584-2.17,2.211-3.693,3.471-5.324c7.957-10.326,15.809-20.742,23.74-31.09c2.873-3.75,5.674-7.498,8.027-11.627
			c1.125-1.973,1.773-4.145,2.463-6.268c1.105-3.385,3.738-5.969,4.262-9.627c0.26-1.822,0.941-3.6,0.064-5.463
			c-0.16-0.34-0.178-0.855-0.059-1.213c1.355-4.088,3.193-7.768,7.018-10.006c3.744-2.192,6.76-1.513,10.902-1.662
			C-445.447,149.102-447.416,142.045-446.879,142.242z M-455.379,141.829c-1.762,0.297-3.434-0.887-3.729-2.642
			c-0.295-1.757,0.896-3.421,2.658-3.717c1.764-0.297,3.432,0.886,3.727,2.642S-453.615,141.533-455.379,141.829z"/>
		<path d="M-422.793,149.686c-1.037-0.912-2.34-1.243-2.734-1.544c-0.672-0.511-10.613-4.44-14.164-6.26
			c-0.137-0.071-1.131-0.372-1.131-0.372l-4.453,1.869l0.99,4.853c0,0,2.592-0.274,3.654-0.021c4.371,1.041,8.756,2.618,13.25,3.741
			c1.23,0.309,2.713,0.238,3.885,0.09c1.176-0.146,2.039-0.371,2.039-0.371S-422.07,150.322-422.793,149.686z"/>
	</g>
</g>
</svg>
