<?xml version="1.0" encoding="utf-8"?>
<!-- Generator: Adobe Illustrator 16.0.0, SVG Export Plug-In . SVG Version: 6.00 Build 0)  -->
<!DOCTYPE svg PUBLIC "-//W3C//DTD SVG 1.1//EN" "http://www.w3.org/Graphics/SVG/1.1/DTD/svg11.dtd">
<svg version="1.1" id="Layer_1" xmlns="http://www.w3.org/2000/svg" xmlns:xlink="http://www.w3.org/1999/xlink" x="0px" y="0px"
	 width="300px" height="300px" viewBox="-303.436 647.548 300 300" enable-background="new -303.436 647.548 300 300"
	 xml:space="preserve">
<g>
	<path d="M-140.316,774.787h-23.928v-23.924c0-3.303-2.68-5.982-5.98-5.982c-3.303,0-5.982,2.68-5.982,5.982v23.924h-23.926
		c-3.302,0-5.98,2.68-5.98,5.982s2.679,5.98,5.98,5.98h23.926v23.928c0,3.301,2.68,5.98,5.982,5.98c3.301,0,5.98-2.68,5.98-5.98
		V786.75h23.928c3.301,0,5.98-2.678,5.98-5.98S-137.016,774.787-140.316,774.787z"/>
	<path d="M-75.336,822.281l-15.371-15.396c2.716-8.23,4.235-16.986,4.235-26.115c0-46.166-37.575-83.742-83.741-83.742
		s-83.742,37.576-83.742,83.742s37.576,83.742,83.742,83.742c9.127,0,17.896-1.52,26.127-4.234l8.972,8.959l18.818,18.795
		l0.766,0.656c7.19,6.055,16.126,9.381,25.171,9.381c20.648,0,37.443-16.797,37.443-37.457c0-10.049-3.924-19.475-11.055-26.535
		L-75.336,822.281L-75.336,822.281z M-230.041,780.77c0-32.982,26.834-59.814,59.816-59.814s59.814,26.832,59.814,59.814
		s-26.832,59.814-59.814,59.814S-230.041,813.752-230.041,780.77z"/>
</g>
</svg>
