<?xml version="1.0" encoding="utf-8"?>
<!-- Generator: Adobe Illustrator 16.0.0, SVG Export Plug-In . SVG Version: 6.00 Build 0)  -->
<!DOCTYPE svg PUBLIC "-//W3C//DTD SVG 1.1//EN" "http://www.w3.org/Graphics/SVG/1.1/DTD/svg11.dtd">
<svg version="1.1" xmlns="http://www.w3.org/2000/svg" xmlns:xlink="http://www.w3.org/1999/xlink" x="0px" y="0px" width="332px"
	 height="628px" viewBox="0 0 332 628" enable-background="new 0 0 332 628" xml:space="preserve">
<g id="marco">
	<rect x="8" y="8" fill="none" stroke="#231F20" stroke-width="4" stroke-miterlimit="10" width="318" height="611.957"/>
</g>
<g id="deltaLibre">
	<g>
		<path stroke="#100E10" stroke-miterlimit="10" d="M98.009,372.376c-0.591-7.028-2.285-12.621-5.095-16.785
			c-3.649-5.303-8.763-7.646-15.343-7.031c-8.662,0.662-14.211,1.158-16.638,1.487c-0.885,0.139-1.287,0.681-1.208,1.631
			l6.248,74.62c0.089,1.076,0.654,1.57,1.696,1.482l14.918-1.248c13.214-1.108,19.073-10.551,17.584-28.337L98.009,372.376z
			 M84.289,407.519c-1.524,3.854-3.231,5.824-5.114,5.915c-0.546,0.046-0.858-0.433-0.94-1.434
			c-0.67-7.993-1.556-18.524-2.648-31.594c-1.1-13.131-1.657-19.824-1.681-20.095c-0.079-0.936,0.185-1.422,0.808-1.474
			c2.004-0.172,3.981,0.923,5.927,3.276c1.944,2.354,3.037,4.932,3.273,7.729l2.092,24.998
			C86.391,399.438,85.816,403.665,84.289,407.519z"/>
		<path stroke="#100E10" stroke-miterlimit="10" d="M134.244,408.513c-4.426,0.086-7.85,0.153-10.279,0.203
			c-1.119-0.082-1.688-0.468-1.703-1.149c-0.31-6.146-0.329-10.326-0.065-12.538c0.112-0.791,0.479-1.194,1.1-1.204l8.411-0.167
			c0.686-0.013,1.021-0.39,1.007-1.134c-0.013-0.532,0.013-2.313,0.081-5.344c0.07-2.602,0.069-4.383-0.012-5.34
			c-0.076-0.637-0.513-0.946-1.319-0.93c-4.443,0.193-7.316,0.226-8.613,0.089c-0.748-0.093-1.122-0.426-1.133-1.013
			c-0.094-1.487-0.138-3.715-0.133-6.69c-0.007-3.507-0.014-5.393-0.019-5.66c-0.013-0.583,0.445-0.884,1.368-0.903
			c4.641-0.09,8.201-0.16,10.672-0.208c0.682-0.016,1.015-0.355,1.001-1.018c-0.014-0.667-0.012-2.248,0-4.745
			c-0.041-2.017-0.068-3.453-0.087-4.303c-0.012-0.636-0.519-0.946-1.51-0.926c-10.719,0.105-18.478,0.232-23.268,0.38
			c-0.688,0.012-1.025,0.316-1.016,0.897l1.233,62.226c0.018,0.954,0.372,1.455,1.064,1.492c7.072,0.337,14.92,0.234,23.539-0.307
			c1-0.073,1.49-0.429,1.479-1.065c-0.104-2.119-0.198-5.335-0.281-9.639C135.747,408.828,135.24,408.494,134.244,408.513z"/>
		<path stroke="#100E10" stroke-miterlimit="10" d="M170.111,408.055l-9.72,0.155c-1.37-0.033-2.096-0.659-2.177-1.879
			c-0.268-5.087-0.448-14.18-0.532-27.286c-0.066-12.04-0.211-19.228-0.436-21.557c-0.007-0.531,0.013-1.035,0.069-1.515
			c-0.137-0.58-0.608-0.839-1.414-0.774c-5.418,0.248-8.782,0.303-10.095,0.163c-1.123-0.145-1.671,0.531-1.645,2.019
			c0.089,13.602,0.507,33.89,1.252,60.867c0.02,1.17,0.494,1.799,1.428,1.894c2.062,0.181,5.706,0.174,10.937-0.017
			c8.594-0.245,12.708-0.364,12.334-0.356c1.555-0.026,2.355-0.522,2.404-1.486c-0.003-4.009-0.052-6.951-0.141-8.82
			C172.363,408.501,171.604,408.03,170.111,408.055z"/>
		<path stroke="#100E10" stroke-miterlimit="10" d="M203.14,355.108c-11.491,0.905-21.085,1.707-28.782,2.41
			c-0.868,0.07-1.368,0.807-1.499,2.201c-0.164,1.026-0.11,2.437,0.166,4.225c0.354,2.743,0.509,3.824,0.459,3.241
			c0.058,0.687,0.585,1.019,1.584,0.985l6.892-0.575c0.743-0.063,1.146,0.276,1.208,1.02l4.389,51.286
			c0.07,0.85,0.514,1.265,1.324,1.252c4.871-0.088,8.408-0.358,10.625-0.81c0.676-0.112,0.979-0.591,0.908-1.438l-4.479-51.278
			c-0.065-0.797,0.552-1.248,1.855-1.359c0.868-0.069,1.985-0.163,3.353-0.277c1.434-0.069,2.367-0.12,2.801-0.157
			c1.055-0.088,1.551-0.5,1.489-1.244c-0.12-2.177-0.379-4.897-0.777-8.17C204.513,355.469,204.008,355.034,203.14,355.108z"/>
		<path stroke="#100E10" stroke-miterlimit="10" d="M249.995,382.2c-5.462-23.14-8.671-34.725-9.628-34.761
			c-4.318-0.086-8.631,0.009-12.937,0.281c-1.04,0.083-3.975,11.802-8.815,35.163c-2.453,12.153-4.896,24.28-7.348,36.373
			c-0.218,0.714,0.304,1.056,1.582,1.027l14.729-0.325c0.4-0.009,0.751-0.285,1.063-0.825c1.093-4.736,1.96-8.9,2.602-12.495
			c0.151-0.419,0.505-0.635,1.065-0.646l4.667-0.104c0.798-0.019,1.243,0.179,1.331,0.591c0.449,2.05,1.101,4.506,1.958,7.375
			c1.204,3.799,2.164,5.693,2.882,5.675c2.235-0.047,4.874-0.077,7.906-0.086c3.032-0.065,5.106-0.111,6.228-0.137
			c0.794-0.017,1.153-0.201,1.065-0.554C255.602,406.566,252.815,394.383,249.995,382.2z M236.804,393.37
			c-1.321,0.178-2.745,0.169-4.295-0.009c-1.543-0.188-2.249-0.495-2.114-0.925c0.481-4.761,0.962-9.445,1.447-14.065
			c0.873-7.063,1.678-10.611,2.417-10.626c0.579-0.016,2.163,8.146,4.719,24.503C238.985,392.825,238.259,393.198,236.804,393.37z"
			/>
	</g>
	<g>
		<path stroke="#0F0D0A" stroke-miterlimit="10" d="M99.112,501.689l-11.426,0.245c-1.614-0.026-2.47-0.757-2.575-2.191
			c-0.346-5.98-0.61-16.67-0.792-32.079c-0.152-14.158-0.371-22.608-0.645-25.343c-0.012-0.624,0.009-1.214,0.07-1.78
			c-0.161-0.683-0.717-0.981-1.666-0.899c-6.368,0.32-10.321,0.404-11.864,0.253c-1.32-0.16-1.963,0.635-1.926,2.381
			c0.193,15.992,0.811,39.846,1.848,71.558c0.027,1.376,0.593,2.111,1.691,2.215c2.427,0.197,6.712,0.169,12.86-0.088
			c10.101-0.339,14.935-0.506,14.493-0.497c1.832-0.036,2.772-0.624,2.821-1.758c-0.027-4.714-0.1-8.175-0.218-10.372
			C101.759,502.203,100.868,501.651,99.112,501.689z"/>
		<path stroke="#0F0D0A" stroke-miterlimit="10" d="M125.15,470.724c-4.839,0.025-8.829,0.071-11.977,0.138
			c-0.592,0.012-0.984,0.255-1.195,0.724c-0.139,0.315-0.208,0.663-0.201,1.053c0.42,16.06,0.692,30.647,0.82,43.765
			c0.023,1.164,0.772,1.77,2.237,1.814c5.938,0.146,9.783,0.063,11.538-0.244c1.166-0.18,1.74-0.736,1.722-1.666
			c-0.383-18.041-0.695-32.706-0.934-43.996C127.065,471.304,126.395,470.777,125.15,470.724z"/>
		<path stroke="#0F0D0A" stroke-miterlimit="10" d="M168.833,481.113c-1.716-1.939-3.649-3.33-5.793-4.161
			c2.997-1.6,4.952-3.402,5.881-5.398c0.676-1.499,1.012-3.868,1.01-7.112l-0.091-8.739c-0.006-3.24-1.443-6.056-4.321-8.44
			c-2.88-2.379-6.246-3.534-10.1-3.452l-18.114,0.384c-0.387,0.009-0.573,0.342-0.558,1l1.39,65.591
			c0.019,0.823,0.349,1.231,0.997,1.215l9.276-0.194c8.053-0.17,13.773-0.845,17.163-2.016c4.416-1.466,6.585-4.151,6.503-8.054
			l-0.297-13.924C171.729,485.507,170.75,483.271,168.833,481.113z M149.751,470.225c-0.155-7.301-0.297-12.329-0.416-15.074
			c-0.012-0.494,0.175-0.773,0.56-0.837c0.387-0.061,1.128-0.076,2.224-0.045c1.996-0.044,3.332,0.505,3.999,1.646
			c0.468,0.757,0.688,2.073,0.661,3.941l-0.034,7.504c-0.035,1.265-0.771,2.255-2.206,2.973c-1.434,0.716-2.797,1.035-4.09,0.951
			C150,471.294,149.766,470.939,149.751,470.225z M153.199,500.653l-1.353,0.027c-0.709,0.017-1.07-0.331-1.085-1.047l-0.312-14.749
			c-0.014-0.604,0.204-0.912,0.653-0.922c4.318-0.092,6.543,1.428,6.674,4.561l0.197,4.86
			C158.142,498.158,156.55,500.584,153.199,500.653z"/>
		<path stroke="#0F0D0A" stroke-miterlimit="10" d="M219.697,500.131c-0.209-9.854-2.065-16.022-5.56-18.506
			c-1.563-1.151-3.042-1.901-4.444-2.245c-0.591-0.174-0.885-0.325-0.889-0.45c0-0.188,0.285-0.384,0.869-0.583
			c1.815-0.596,3.442-1.69,4.877-3.283c2.075-2.226,3.08-4.871,3.014-7.925l-0.276-18.436c-0.064-2.992-1.849-5.357-5.35-7.093
			c-3.202-1.555-7.089-2.282-11.658-2.188c-7.001,0.214-12.526,0.359-16.579,0.445c-1.327,0.029-1.977,0.606-1.953,1.729
			l1.53,72.036c0.034,1.748,0.494,2.643,1.375,2.687c3.592,0.173,7.361,0.032,11.311-0.431c0.805-0.078,1.188-0.928,1.154-2.554
			c-0.086-7.431-0.231-16.05-0.441-25.851c-0.023-1.187,0.218-1.881,0.728-2.082c0.363-0.132,0.802-0.14,1.317-0.026
			c3.88-0.082,5.923,4.594,6.123,14.022c0.111,5.184,0.394,9.895,0.851,14.132c0.182,1.685,0.674,2.518,1.48,2.501
			c7.18,0.033,11.466-0.029,12.854-0.183c1.098-0.085,1.448-0.81,1.056-2.172C220.29,510.947,219.83,506.433,219.697,500.131z
			 M203.009,469.823c-0.56,1.387-1.643,2.1-3.253,2.132c-0.512,0.071-0.951,0.08-1.318,0.027c-1.027-0.043-1.558-0.931-1.596-2.674
			l-0.349-16.411c-0.02-1.055,0.298-1.591,0.958-1.604c0.364-0.01,0.911-0.081,1.644-0.225c3.217-0.254,4.868,1.679,4.955,5.8
			C204.191,463.487,203.844,467.806,203.009,469.823z"/>
		<path stroke="#0F0D0A" stroke-miterlimit="10" d="M268.357,506.082c-0.015-0.912-0.685-1.351-1.996-1.325
			c-5.836,0.124-10.348,0.219-13.551,0.289c-1.481-0.107-2.229-0.61-2.247-1.513c-0.42-8.098-0.456-13.607-0.104-16.528
			c0.139-1.038,0.619-1.57,1.441-1.586l11.084-0.238c0.903-0.019,1.345-0.516,1.327-1.499c-0.016-0.699,0.017-3.045,0.096-7.042
			c0.092-3.431,0.081-5.781-0.025-7.039c-0.097-0.837-0.679-1.246-1.736-1.224c-5.864,0.269-9.646,0.311-11.361,0.134
			c-0.981-0.115-1.479-0.56-1.492-1.331c-0.127-1.959-0.189-4.898-0.19-8.822c-0.015-4.622-0.025-7.112-0.034-7.461
			c-0.012-0.77,0.583-1.169,1.806-1.194c6.116-0.13,10.805-0.229,14.066-0.299c0.895-0.02,1.337-0.463,1.319-1.339
			s-0.027-2.959-0.009-6.255c-0.06-2.654-0.098-4.545-0.123-5.669c-0.018-0.84-0.687-1.247-1.998-1.219
			c-14.124,0.16-24.353,0.344-30.669,0.543c-0.905,0.021-1.348,0.415-1.331,1.188l1.739,82.021c0.029,1.26,0.493,1.913,1.405,1.967
			c9.322,0.434,19.665,0.286,31.025-0.45c1.319-0.096,1.97-0.567,1.95-1.404C268.606,515.988,268.482,511.751,268.357,506.082z"/>
		<circle stroke="#0F0D0A" stroke-miterlimit="10" cx="119.454" cy="459.362" r="7.791"/>
	</g>
</g>
<g id="ipacaa">
	<g>
		<path d="M306.417,109.274c-18.276-43.538-73.803-62.155-115.911-42.632c-5.198,2.41-0.679,10.073,4.487,7.678
			c36.438-16.895,86.929-0.609,102.85,37.318C300.027,116.842,308.635,114.559,306.417,109.274z"/>
		<path d="M202.908,89.67c-4.69,1.956-2.635,9.702,2.127,7.716c26.209-10.929,56.53,0.363,71.942,23.661
			c2.833,4.282,9.766,0.279,6.909-4.039C266.683,91.001,232.481,77.338,202.908,89.67z"/>
		<path d="M241.53,112.304c-9.536-3.516-20.36-3.741-29.672,0.485c-3.91,1.775-0.518,7.521,3.366,5.758
			c7.456-3.384,15.958-2.568,23.557-0.147c6.634,2.113,13.872,6.259,17.04,12.726c1.892,3.861,7.643,0.48,5.758-3.366
			C257.747,119.936,249.389,115.202,241.53,112.304z"/>
		<path d="M220.977,130.854c-3.26,1.052-1.865,6.204,1.418,5.144c5.115-1.651,10.506,0.225,14.048,4.139
			c2.313,2.556,6.074-1.229,3.772-3.772C235.468,131.121,227.793,128.654,220.977,130.854z"/>
	</g>
	<g>
		
			<ellipse transform="matrix(-0.1653 -0.9862 0.9862 -0.1653 102.6581 404.5499)" cx="222.517" cy="158.834" rx="1.864" ry="1.871"/>
		<path d="M233.843,164.133c1.27-0.213,2.639-1.141,6.178-2.069c-4.08-2.17-6.119-4.331-9.564-7.297
			c-5.152-4.438-12.166-4.266-16.613-0.574c-3.451,2.866-5.027,6.927-7.117,10.671c-2.906,5.215-4.129,11.214-6.607,16.639
			c-1.639,3.585-4.41,6.346-6.449,9.66c-1.217,1.979-3.625,3.063-5.883,3.507c-4.094,0.804-8.135,2.298-12.451,1.417
			c-0.623-0.127-1.313,0.099-1.965,0.202c-4.65,0.737-9.285,1.588-13.955,2.202c-5.258,0.691-10.189,2.739-15.309,3.779
			c-10.023,2.037-17.389,8.93-25.785,13.917c-2.893,1.717-5.998,2.786-8.951,4.272c-1.4,0.706-2.457-0.061-3.002-1.418
			c-0.773-1.919-1.473-3.879-2.047-5.868c-1.096-3.792-3.104-6.854-6.121-9.295c-2.568-2.075-4.969-4.375-7.504-6.493
			c-0.834-0.695-1.99-1.878-2.473,0.383c-3.275,0.096-2.369,4.916-5.484,5.288c-0.639,0.076-0.541,0.967-0.375,1.572
			c1.313,4.735,1.449,9.735,3.221,14.374c0.375,0.983,0.813,1.872,1.381,2.743c1.34,2.05,2.424,4.285,1.965,6.812
			c-0.904,4.979,1.25,8.814,4.283,12.225c1.188,1.336,1.375,2.262,0.59,3.818c-1.191,2.363-2.488,4.645-3.914,6.853
			c-0.645,0.993-1.273,2.008-1.803,3.071c-1.338,2.696-1.096,5.709,0.541,7.536c1.455,1.627,4.893,2.287,7.205,0.968
			c5.377-3.069,11.09-2.592,16.838-1.76c1.074,0.156,2.486,0.714,2.881,1.791c0.467,1.266-1.09,1.69-1.744,2.503
			c-3.061,3.805-6.988,5.987-11.602,7.21c-2.037,0.542-3.721,1.965-4.516,4.346c-2.246,6.727-4.639,13.397-6.973,20.091
			c-1.582,4.534-3.633,8.836-5.797,13.083c-0.527,1.033-1.277,1.201-2.275,0.948c-1.176-0.295-1.668,0.293-1.203,1.391
			c1.047,2.478-0.236,4.531-0.605,6.819c-0.529,3.273-2.033,6.381-1.627,9.83c0.059,0.515,0.172,1.036,0.148,1.548
			c-0.105,2.301-0.012,4.306,3.127,3.237c0.326-0.111,0.891,0.384,1.297,0.672c1.346,0.959,2.338,0.153,3.334-0.639
			c1.121-0.893,1.156-2.152,0.537-3.256c-0.848-1.514-0.992-2.894-0.145-4.375c0.08-0.143,0.123-0.326,0.133-0.494
			c0.512-8.864,5.078-16.33,7.443-24.557c0.566-1.973,1.49-3.825,2.104-5.785c2.221-7.107,6.283-12.986,11.385-17.988
			c3.107-3.048,6.875-5.221,11.328-5.844c4.742-0.663,9.449-1.56,14.17-2.354c2.93-0.971,5.943-1.357,8.748-2.8
			c1.441-0.741,3.135-1.075,4.799-0.252c0.365,0.182,0.986,0.244,0.779,0.762c-1.121,2.808,0.373,2.154,1.934,1.751
			c1.734-0.449,2.674,0.422,2.832,2.278c0.451,5.372,0.555,10.75-1.039,15.895c-1.523,4.933,0.287,8.52,3.684,11.745
			c4.496,4.272,9.141,8.401,12.508,13.801c0.403,0.646,1.012,1.391,1.672,1.465c5.005,5.648,9.095,12.019,13.459,18.173
			c1.848,2.606,6.187,0.113,4.316-2.523c-4.972-7.013-9.634-14.29-15.529-20.576c-0.638-2.09-2.329-3.438-3.633-5.023
			c-1.607-1.949-3.549-3.574-5.365-5.314c-2.928-2.799-4.758-6.442-4.838-10.72c-0.076-4.145,0.344-8.241,1.42-12.229
			c0.732-2.721,2.771-4.629,4.35-6.674c9.973-12.942,19.813-25.996,29.752-38.963c3.602-4.701,7.111-9.397,10.061-14.573
			c1.41-2.472,2.223-5.193,3.088-7.855c1.385-4.239,4.684-7.48,5.34-12.063c0.326-2.283,1.18-4.511,0.082-6.847
			c-0.201-0.425-0.223-1.071-0.074-1.519c1.699-5.125,4.002-9.735,8.795-12.541c4.691-2.746,8.473-1.896,13.662-2.083
			C235.638,172.729,233.169,163.886,233.843,164.133z M223.19,163.615c-2.209,0.372-4.303-1.11-4.674-3.311
			c-0.369-2.201,1.123-4.286,3.332-4.658c2.211-0.372,4.301,1.11,4.67,3.311C226.89,161.158,225.399,163.243,223.19,163.615z"/>
		<path d="M264.028,173.462c-1.299-1.142-2.932-1.559-3.426-1.935c-0.842-0.64-13.303-5.564-17.752-7.845
			c-0.172-0.088-1.418-0.465-1.418-0.465l-5.581,2.342l1.24,6.082c0,0,3.249-0.345,4.581-0.027
			c5.479,1.304,10.975,3.28,16.605,4.687c1.543,0.387,3.4,0.299,4.869,0.114c1.473-0.185,2.555-0.466,2.555-0.466
			S264.935,174.259,264.028,173.462z"/>
	</g>
</g>
<g id="Layer_5">
	<g>
		<path d="M184.023,550.925c0,0.469-0.146,0.705-0.44,0.705c-0.471,0-1.202,0.012-2.19,0.033c-0.855,0.023-1.498,0.031-1.926,0.031
			c-0.427,0-0.649-0.106-0.675-0.321c-0.021-0.214-0.033-1.575-0.033-4.087c0-0.429,0.125-0.646,0.372-0.646
			c0.248,0,0.876-0.015,1.891-0.048c1.011-0.031,1.821-0.048,2.428-0.048c0.36,0,0.541,0.109,0.541,0.323
			C184.013,547.469,184.023,548.822,184.023,550.925z"/>
		<path d="M196.577,547.532c0,3.604-1.8,5.407-5.398,5.407c-1.868,0-3.206-0.452-4.018-1.352c-0.765-0.838-1.146-2.189-1.146-4.056
			v-14.9c0-2.338,0.493-4.001,1.484-4.987c0.811-0.816,2.036-1.224,3.679-1.224c1.755,0,3.037,0.353,3.847,1.063
			c1.034,0.9,1.552,2.489,1.552,4.763V547.532z M192.293,546.085v-13.036c0-1.266-0.316-1.896-0.946-1.896
			c-0.698,0-1.046,0.642-1.046,1.93v13.035c0,0.707,0.08,1.154,0.236,1.335c0.156,0.183,0.427,0.274,0.81,0.274
			C191.977,547.727,192.293,547.179,192.293,546.085z"/>
		<path d="M211.744,552.596c0.112,0.474,0,0.72-0.337,0.741c-0.429,0.043-1.744,0.032-3.948-0.033c-0.248,0-0.395-0.287-0.438-0.868
			c-0.115-1.457-0.169-3.078-0.169-4.859c0-3.239-0.597-4.86-1.788-4.86c-0.159-0.042-0.294-0.042-0.407,0
			c-0.156,0.065-0.236,0.303-0.236,0.71c0,3.366-0.011,6.329-0.033,8.881c0,0.56-0.124,0.848-0.37,0.869
			c-1.215,0.128-2.374,0.151-3.477,0.063c-0.271-0.021-0.405-0.333-0.405-0.931v-24.751c0-0.384,0.203-0.578,0.612-0.578
			c1.245,0,2.941-0.01,5.094-0.031c1.402,0,2.591,0.277,3.565,0.835c1.063,0.621,1.596,1.447,1.596,2.477l-0.035,6.332
			c0,1.049-0.325,1.948-0.978,2.697c-0.45,0.538-0.957,0.901-1.519,1.095c-0.18,0.063-0.27,0.128-0.27,0.192
			c0,0.043,0.09,0.097,0.27,0.161c0.427,0.128,0.877,0.396,1.351,0.802c1.057,0.88,1.585,3.012,1.585,6.397
			C211.407,550.103,211.521,551.654,211.744,552.596z M206.884,532.966c0-1.417-0.492-2.093-1.483-2.028
			c-0.226,0.044-0.394,0.064-0.507,0.064c-0.201,0-0.303,0.182-0.303,0.545v5.638c0,0.601,0.157,0.908,0.474,0.93
			c0.11,0.021,0.245,0.021,0.402,0c0.496,0,0.833-0.235,1.015-0.706C206.749,536.721,206.884,535.24,206.884,532.966z"/>
		<path d="M227.095,552.392c0,0.578-0.112,0.866-0.339,0.866h-0.943c-0.203,0-0.35-0.137-0.438-0.408
			c-0.092-0.273-0.236-0.642-0.44-1.105c-0.383,1.011-1.643,1.514-3.779,1.514c-2.315,0-3.948-0.554-4.893-1.665
			c-0.833-0.98-1.237-2.604-1.215-4.869l0.068-13.064c0.021-2.648,0.481-4.44,1.384-5.381c0.809-0.832,2.26-1.249,4.352-1.249
			c2.498,0,4.195,0.599,5.097,1.798c0.675,0.854,1.022,2.299,1.047,4.331c0.066,1.905,0.089,3.306,0.066,4.203
			c0,0.364-0.147,0.545-0.438,0.545c-0.788,0.023-2.014,0.012-3.679-0.031c-0.27,0-0.417-0.16-0.439-0.48
			c-0.044-1.26-0.089-2.509-0.133-3.749c-0.159-1.707-0.575-2.561-1.25-2.561c-0.833,0-1.248,0.847-1.248,2.537v13.525
			c0,0.342,0.112,0.75,0.339,1.221c0.268,0.577,0.583,0.867,0.942,0.867c0.901,0,1.35-1.158,1.35-3.476v-1.641
			c0-0.279-0.089-0.409-0.27-0.386h-0.81c-0.203,0-0.304-0.099-0.304-0.291v-3.12c0-0.322,0.169-0.482,0.507-0.482
			c1.192,0,2.845,0.009,4.959,0.031c0.339,0,0.507,0.182,0.507,0.546V552.392z"/>
		<path d="M235.645,551.962c0,0.473-0.146,0.708-0.44,0.708c-0.471,0-1.202,0.01-2.19,0.032c-0.856,0.021-1.498,0.033-1.926,0.033
			c-0.427,0-0.652-0.109-0.675-0.324c-0.021-0.212-0.033-1.576-0.033-4.087c0-0.429,0.124-0.643,0.371-0.643
			c0.246,0,0.876-0.017,1.892-0.048c1.01-0.032,1.82-0.049,2.427-0.049c0.361,0,0.542,0.108,0.542,0.322
			C235.634,548.508,235.645,549.859,235.645,551.962z"/>
		<path d="M252.537,553.726c0.021,0.129-0.08,0.191-0.303,0.191c-0.316,0-0.901,0-1.756,0c-0.855-0.02-1.599-0.031-2.228-0.031
			c-0.203,0-0.462-0.696-0.776-2.092c-0.225-1.051-0.393-1.953-0.505-2.702c-0.022-0.151-0.148-0.227-0.371-0.227h-1.318
			c-0.156,0-0.256,0.076-0.303,0.228c-0.201,1.305-0.472,2.814-0.81,4.533c-0.091,0.193-0.192,0.291-0.305,0.291h-4.15
			c-0.36,0-0.504-0.129-0.438-0.386c0.765-4.387,1.529-8.785,2.295-13.194c1.506-8.474,2.405-12.724,2.699-12.744
			c1.214-0.064,2.429-0.064,3.644,0c0.27,0.021,1.104,4.271,2.499,12.744C251.131,544.799,251.84,549.263,252.537,553.726z
			 M246.667,544.811c-0.339-2.445-0.554-3.67-0.644-3.67c-0.113,0-0.248,0.526-0.405,1.578c-0.088,0.687-0.179,1.384-0.27,2.092
			c-0.021,0.064,0.085,0.111,0.322,0.145c0.236,0.032,0.454,0.038,0.657,0.016C246.554,544.95,246.667,544.896,246.667,544.811z"/>
		<path d="M267.909,551.971c0.113,0.471,0,0.716-0.338,0.738c-0.427,0.043-1.743,0.031-3.948-0.033
			c-0.246,0-0.394-0.288-0.438-0.868c-0.111-1.46-0.168-3.079-0.168-4.859c0-3.24-0.597-4.86-1.788-4.86
			c-0.157-0.042-0.292-0.042-0.404,0c-0.16,0.064-0.236,0.302-0.236,0.71c0,3.366-0.014,6.328-0.035,8.88
			c0,0.559-0.124,0.849-0.37,0.869c-1.216,0.129-2.374,0.151-3.477,0.064c-0.271-0.021-0.405-0.333-0.405-0.932v-24.75
			c0-0.385,0.203-0.578,0.611-0.578c1.245,0,2.941-0.01,5.094-0.032c1.403,0,2.592,0.277,3.564,0.835
			c1.065,0.621,1.597,1.447,1.597,2.477l-0.033,6.332c0,1.05-0.327,1.95-0.979,2.698c-0.45,0.537-0.958,0.901-1.52,1.094
			c-0.18,0.064-0.27,0.13-0.27,0.193c0,0.043,0.09,0.097,0.27,0.161c0.427,0.128,0.878,0.396,1.351,0.803
			c1.057,0.879,1.585,3.011,1.585,6.396C267.571,549.474,267.685,551.026,267.909,551.971z M263.05,532.336
			c0-1.415-0.495-2.092-1.483-2.026c-0.228,0.043-0.396,0.064-0.508,0.064c-0.201,0-0.303,0.181-0.303,0.544v5.639
			c0,0.6,0.156,0.909,0.473,0.93c0.11,0.021,0.247,0.021,0.405,0c0.495,0,0.831-0.235,1.012-0.707
			C262.915,536.091,263.05,534.612,263.05,532.336z"/>
	</g>
</g>
<g id="Lineas_Blancas">
	
		<rect x="103.375" y="481.295" transform="matrix(0.0356 0.9994 -0.9994 0.0356 626.3889 314.4871)" fill="#FFFFFF" width="93.749" height="1.001"/>
	
		<rect x="167.296" y="458.861" transform="matrix(0.0424 0.9991 -0.9991 0.0424 647.186 243.474)" fill="#FFFFFF" width="58.562" height="1.001"/>
	<rect x="234.288" y="344.976" fill="#FFFFFF" width="1" height="73.077"/>
	
		<rect x="31.314" y="389.463" transform="matrix(0.08 0.9968 -0.9968 0.08 459.0428 282.565)" fill="#FFFFFF" width="90.264" height="1"/>
	<rect x="204.179" y="526.012" fill="#FFFFFF" width="0.492" height="16.887"/>
	<rect x="191.051" y="524.513" fill="#FFFFFF" width="0.492" height="31.384"/>
	<rect x="245.653" y="525.067" fill="#FFFFFF" width="0.492" height="28.19"/>
	<rect x="260.395" y="522.29" fill="#FFFFFF" width="0.414" height="19.845"/>
	
		<rect x="217.926" y="152.532" transform="matrix(0.0019 1 -1 0.0019 374.5076 -69.0458)" fill="#FFFFFF" width="7.83" height="1.1"/>
</g>
</svg>
