<?xml version="1.0" encoding="utf-8"?>
<!-- Generator: Adobe Illustrator 16.0.0, SVG Export Plug-In . SVG Version: 6.00 Build 0)  -->
<!DOCTYPE svg PUBLIC "-//W3C//DTD SVG 1.1//EN" "http://www.w3.org/Graphics/SVG/1.1/DTD/svg11.dtd">
<svg version="1.1" id="Layer_1" xmlns="http://www.w3.org/2000/svg" xmlns:xlink="http://www.w3.org/1999/xlink" x="0px" y="0px"
	 width="595.28px" height="841.89px" viewBox="0 0 595.28 841.89" enable-background="new 0 0 595.28 841.89" xml:space="preserve">
<g>
	
		<rect x="100.682" y="52.454" fill="none" stroke="#231F20" stroke-width="2.2234" stroke-miterlimit="10" width="176.761" height="340.158"/>
	<g>
		<path fill="#010101" stroke="#121112" stroke-width="0.5559" stroke-miterlimit="10" d="M150.713,254.995
			c-0.328-3.908-1.271-7.017-2.831-9.33c-2.03-2.947-4.872-4.25-8.529-3.91c-4.814,0.369-7.899,0.645-9.248,0.827
			c-0.492,0.077-0.715,0.379-0.672,0.907l3.473,41.479c0.05,0.599,0.364,0.873,0.943,0.824l8.292-0.694
			c7.345-0.617,10.603-5.864,9.774-15.751L150.713,254.995z M143.087,274.529c-0.847,2.142-1.796,3.237-2.842,3.287
			c-0.304,0.026-0.477-0.24-0.523-0.797c-0.373-4.442-0.865-10.296-1.472-17.561c-0.612-7.3-0.922-11.02-0.935-11.169
			c-0.044-0.52,0.103-0.79,0.449-0.82c1.114-0.095,2.212,0.514,3.294,1.822c1.081,1.309,1.688,2.741,1.819,4.296l1.162,13.895
			C144.256,270.036,143.937,272.386,143.087,274.529z"/>
		<path fill="#010101" stroke="#121112" stroke-width="0.5559" stroke-miterlimit="10" d="M170.855,275.081
			c-2.459,0.049-4.363,0.084-5.713,0.113c-0.622-0.046-0.939-0.261-0.946-0.639c-0.173-3.417-0.184-5.74-0.037-6.969
			c0.063-0.44,0.266-0.665,0.611-0.67l4.676-0.092c0.381-0.008,0.566-0.218,0.559-0.632c-0.006-0.294,0.007-1.284,0.045-2.969
			c0.039-1.446,0.038-2.437-0.006-2.968c-0.042-0.354-0.286-0.525-0.734-0.517c-2.471,0.108-4.067,0.126-4.788,0.05
			c-0.416-0.051-0.623-0.236-0.63-0.563c-0.051-0.827-0.076-2.065-0.074-3.718c-0.002-1.95-0.007-2.998-0.009-3.146
			c-0.008-0.324,0.247-0.492,0.76-0.503c2.579-0.049,4.558-0.089,5.932-0.115c0.379-0.009,0.564-0.197,0.557-0.565
			c-0.008-0.372-0.006-1.25,0-2.639c-0.023-1.121-0.039-1.919-0.049-2.391c-0.007-0.353-0.288-0.525-0.839-0.515
			c-5.958,0.059-10.271,0.129-12.934,0.212c-0.382,0.006-0.57,0.176-0.564,0.498l0.686,34.588c0.01,0.53,0.206,0.809,0.592,0.829
			c3.931,0.187,8.293,0.131,13.084-0.169c0.556-0.042,0.828-0.24,0.822-0.593c-0.058-1.178-0.111-2.965-0.157-5.358
			C171.69,275.256,171.409,275.07,170.855,275.081z"/>
		<path fill="#010101" stroke="#121112" stroke-width="0.5559" stroke-miterlimit="10" d="M190.793,274.827l-5.404,0.086
			c-0.76-0.019-1.165-0.367-1.21-1.045c-0.148-2.828-0.25-7.881-0.296-15.167c-0.037-6.692-0.117-10.686-0.241-11.982
			c-0.004-0.296,0.007-0.576,0.039-0.842c-0.076-0.322-0.339-0.467-0.785-0.431c-3.012,0.138-4.882,0.169-5.612,0.091
			c-0.625-0.08-0.929,0.296-0.914,1.121c0.049,7.561,0.282,18.838,0.696,33.833c0.011,0.65,0.274,1,0.794,1.054
			c1.146,0.1,3.172,0.096,6.08-0.009c4.776-0.137,7.063-0.202,6.855-0.198c0.865-0.015,1.31-0.291,1.336-0.826
			c-0.002-2.229-0.03-3.864-0.078-4.903C192.044,275.074,191.622,274.813,190.793,274.827z"/>
		<path fill="#010101" stroke="#121112" stroke-width="0.5559" stroke-miterlimit="10" d="M209.151,245.396
			c-6.387,0.503-11.719,0.949-15.999,1.339c-0.483,0.04-0.761,0.449-0.834,1.224c-0.091,0.57-0.061,1.354,0.093,2.348
			c0.196,1.525,0.283,2.126,0.255,1.801c0.032,0.382,0.325,0.567,0.879,0.548l3.832-0.32c0.413-0.035,0.636,0.154,0.671,0.566
			l2.439,28.508c0.039,0.472,0.286,0.703,0.736,0.696c2.708-0.049,4.674-0.201,5.906-0.451c0.376-0.062,0.545-0.328,0.504-0.798
			l-2.488-28.503c-0.038-0.443,0.306-0.694,1.031-0.756c0.481-0.039,1.103-0.091,1.862-0.155c0.797-0.038,1.316-0.065,1.557-0.086
			c0.586-0.049,0.862-0.278,0.828-0.692c-0.067-1.211-0.21-2.723-0.432-4.541C209.914,245.595,209.634,245.354,209.151,245.396z"/>
		<path fill="#010101" stroke="#121112" stroke-width="0.5559" stroke-miterlimit="10" d="M235.196,260.455
			c-3.036-12.863-4.819-19.302-5.351-19.322c-2.401-0.047-4.797,0.004-7.191,0.156c-0.578,0.047-2.21,6.561-4.9,19.545
			c-1.364,6.755-2.722,13.496-4.084,20.219c-0.122,0.396,0.167,0.586,0.879,0.571l8.188-0.181c0.222-0.005,0.416-0.158,0.589-0.458
			c0.607-2.633,1.09-4.947,1.446-6.946c0.083-0.233,0.28-0.353,0.592-0.36l2.594-0.058c0.443-0.01,0.691,0.099,0.74,0.328
			c0.25,1.14,0.612,2.505,1.088,4.1c0.669,2.111,1.203,3.165,1.602,3.154c1.244-0.025,2.71-0.043,4.395-0.048
			c1.687-0.037,2.839-0.062,3.462-0.076c0.442-0.009,0.641-0.111,0.592-0.308C238.313,273.999,236.764,267.227,235.196,260.455z
			 M227.863,266.665c-0.734,0.098-1.525,0.093-2.388-0.006c-0.857-0.104-1.25-0.274-1.174-0.514c0.267-2.646,0.534-5.25,0.805-7.819
			c0.485-3.925,0.932-5.898,1.343-5.905c0.322-0.009,1.203,4.528,2.623,13.619C229.076,266.361,228.672,266.568,227.863,266.665z"/>
	</g>
	<g>
		<path fill="#010101" stroke="#12100F" stroke-width="0.5559" stroke-miterlimit="10" d="M151.327,326.873l-6.351,0.138
			c-0.897-0.016-1.373-0.422-1.432-1.219c-0.192-3.325-0.339-9.266-0.44-17.832c-0.085-7.87-0.207-12.566-0.359-14.087
			c-0.006-0.347,0.005-0.675,0.04-0.989c-0.09-0.379-0.398-0.545-0.926-0.499c-3.539,0.178-5.737,0.224-6.595,0.139
			c-0.734-0.089-1.091,0.353-1.071,1.323c0.108,8.889,0.451,22.149,1.027,39.776c0.015,0.765,0.33,1.174,0.94,1.23
			c1.349,0.11,3.73,0.094,7.148-0.049c5.614-0.188,8.301-0.281,8.057-0.276c1.018-0.02,1.54-0.347,1.567-0.976
			c-0.016-2.621-0.055-4.544-0.12-5.766C152.798,327.158,152.302,326.853,151.327,326.873z"/>
		<path fill="#010101" stroke="#12100F" stroke-width="0.5559" stroke-miterlimit="10" d="M165.801,309.662
			c-2.691,0.014-4.909,0.039-6.658,0.075c-0.329,0.006-0.547,0.143-0.664,0.403c-0.077,0.175-0.116,0.368-0.112,0.585
			c0.233,8.926,0.385,17.035,0.456,24.326c0.014,0.647,0.429,0.984,1.243,1.01c3.301,0.08,5.438,0.035,6.415-0.137
			c0.648-0.099,0.967-0.408,0.956-0.925c-0.212-10.029-0.387-18.18-0.519-24.456C166.865,309.983,166.492,309.691,165.801,309.662z"
			/>
		<path fill="#010101" stroke="#12100F" stroke-width="0.5559" stroke-miterlimit="10" d="M190.082,315.436
			c-0.954-1.078-2.028-1.851-3.22-2.312c1.667-0.89,2.752-1.892,3.268-3.001c0.376-0.833,0.563-2.151,0.562-3.954l-0.049-4.857
			c-0.004-1.801-0.803-3.366-2.403-4.692c-1.6-1.322-3.473-1.963-5.614-1.919l-10.069,0.214c-0.214,0.005-0.319,0.189-0.31,0.556
			l0.773,36.459c0.009,0.456,0.193,0.684,0.553,0.675l5.157-0.108c4.476-0.095,7.656-0.469,9.54-1.12
			c2.455-0.814,3.661-2.307,3.615-4.476l-0.165-7.74C191.691,317.879,191.147,316.635,190.082,315.436z M179.475,309.383
			c-0.086-4.057-0.165-6.852-0.231-8.379c-0.007-0.274,0.098-0.43,0.312-0.464c0.215-0.033,0.625-0.043,1.235-0.024
			c1.11-0.026,1.852,0.279,2.224,0.914c0.26,0.421,0.383,1.152,0.367,2.19l-0.019,4.17c-0.019,0.704-0.428,1.254-1.227,1.653
			c-0.797,0.398-1.554,0.576-2.272,0.528C179.614,309.978,179.483,309.781,179.475,309.383z M181.392,326.297l-0.752,0.016
			c-0.395,0.009-0.595-0.185-0.603-0.583l-0.173-8.199c-0.007-0.335,0.113-0.505,0.363-0.511c2.4-0.052,3.638,0.794,3.71,2.534
			l0.11,2.702C184.138,324.91,183.254,326.259,181.392,326.297z"/>
		<path fill="#010101" stroke="#12100F" stroke-width="0.5559" stroke-miterlimit="10" d="M218.355,326.007
			c-0.117-5.477-1.149-8.906-3.091-10.287c-0.869-0.639-1.69-1.057-2.471-1.248c-0.328-0.097-0.491-0.181-0.493-0.25
			c0-0.105,0.158-0.213,0.482-0.324c1.009-0.331,1.913-0.94,2.711-1.825c1.153-1.237,1.712-2.708,1.675-4.405l-0.154-10.248
			c-0.035-1.663-1.026-2.978-2.974-3.942c-1.778-0.864-3.939-1.27-6.479-1.216c-3.891,0.118-6.963,0.2-9.215,0.248
			c-0.738,0.016-1.099,0.336-1.085,0.961l0.851,40.04c0.019,0.973,0.274,1.469,0.765,1.495c1.996,0.095,4.091,0.017,6.287-0.24
			c0.446-0.043,0.66-0.516,0.641-1.419c-0.047-4.131-0.129-8.921-0.246-14.369c-0.012-0.659,0.122-1.045,0.406-1.158
			c0.202-0.072,0.445-0.077,0.732-0.013c2.157-0.046,3.292,2.552,3.403,7.793c0.063,2.882,0.219,5.5,0.473,7.855
			c0.101,0.936,0.375,1.399,0.823,1.39c3.991,0.018,6.373-0.017,7.144-0.101c0.61-0.047,0.805-0.45,0.586-1.207
			C218.684,332.019,218.429,329.51,218.355,326.007z M209.078,309.161c-0.311,0.77-0.913,1.166-1.807,1.184
			c-0.285,0.04-0.529,0.044-0.733,0.015c-0.571-0.024-0.867-0.517-0.888-1.486l-0.194-9.122c-0.011-0.586,0.167-0.885,0.534-0.892
			c0.2-0.006,0.505-0.045,0.912-0.125c1.789-0.141,2.707,0.934,2.755,3.225C209.735,305.639,209.542,308.039,209.078,309.161z"/>
		<path fill="#010101" stroke="#12100F" stroke-width="0.5559" stroke-miterlimit="10" d="M245.403,329.314
			c-0.008-0.507-0.381-0.75-1.109-0.736c-3.244,0.068-5.752,0.121-7.533,0.16c-0.823-0.059-1.238-0.339-1.25-0.84
			c-0.233-4.502-0.252-7.564-0.057-9.188c0.077-0.577,0.344-0.873,0.802-0.881l6.16-0.132c0.503-0.011,0.749-0.287,0.739-0.834
			c-0.009-0.389,0.009-1.693,0.054-3.914c0.05-1.908,0.044-3.214-0.014-3.913c-0.055-0.466-0.377-0.693-0.966-0.681
			c-3.26,0.15-5.361,0.173-6.314,0.075c-0.546-0.064-0.822-0.311-0.829-0.74c-0.071-1.088-0.106-2.722-0.107-4.903
			c-0.008-2.569-0.015-3.953-0.019-4.147c-0.006-0.428,0.323-0.65,1.003-0.663c3.4-0.074,6.006-0.129,7.819-0.167
			c0.498-0.011,0.744-0.257,0.734-0.745c-0.01-0.486-0.016-1.645-0.005-3.476c-0.032-1.476-0.055-2.527-0.068-3.152
			c-0.011-0.466-0.382-0.692-1.112-0.677c-7.85,0.088-13.536,0.19-17.046,0.301c-0.504,0.012-0.749,0.231-0.741,0.662l0.967,45.591
			c0.017,0.701,0.274,1.063,0.781,1.094c5.181,0.241,10.931,0.159,17.245-0.251c0.734-0.053,1.095-0.315,1.084-0.78
			C245.541,334.821,245.473,332.466,245.403,329.314z"/>
		<circle fill="#010101" stroke="#12100F" stroke-width="0.5559" stroke-miterlimit="10" cx="162.634" cy="303.345" r="4.33"/>
	</g>
	<g>
		<path fill="#010101" d="M266.558,108.748c-10.158-24.2-41.023-34.549-64.429-23.697c-2.891,1.34-0.378,5.599,2.494,4.268
			c20.255-9.391,48.32-0.338,57.169,20.743C263.007,112.954,267.791,111.685,266.558,108.748z"/>
		<path fill="#010101" d="M209.023,97.851c-2.608,1.087-1.465,5.393,1.182,4.289c14.568-6.075,31.422,0.202,39.988,13.152
			c1.576,2.381,5.429,0.155,3.841-2.245C244.471,98.591,225.46,90.996,209.023,97.851z"/>
		<path fill="#010101" d="M230.49,110.432c-5.3-1.955-11.316-2.079-16.493,0.27c-2.174,0.987-0.288,4.181,1.871,3.2
			c4.144-1.88,8.87-1.427,13.094-0.082c3.687,1.175,7.71,3.48,9.471,7.074c1.052,2.146,4.248,0.267,3.2-1.871
			C239.505,114.674,234.859,112.042,230.49,110.432z"/>
		<path fill="#010101" d="M219.066,120.744c-1.812,0.584-1.037,3.448,0.789,2.859c2.843-0.918,5.839,0.125,7.807,2.3
			c1.287,1.421,3.377-0.682,2.098-2.097C227.12,120.891,222.854,119.521,219.066,120.744z"/>
	</g>
	<g>
		<circle fill="#010101" cx="219.922" cy="136.296" r="1.036"/>
		<path fill="#010101" d="M226.217,139.242c0.707-0.119,1.467-0.634,3.434-1.15c-2.268-1.206-3.401-2.407-5.316-4.056
			c-2.864-2.467-6.762-2.372-9.234-0.319c-1.919,1.593-2.795,3.85-3.956,5.932c-1.615,2.898-2.295,6.232-3.674,9.249
			c-0.91,1.993-2.451,3.526-3.584,5.369c-0.676,1.1-2.015,1.702-3.269,1.95c-2.276,0.446-4.522,1.278-6.921,0.787
			c-0.347-0.07-0.73,0.056-1.092,0.113c-2.585,0.41-5.162,0.883-7.757,1.224c-2.923,0.385-5.664,1.522-8.51,2.101
			c-5.571,1.133-9.666,4.964-14.333,7.736c-1.608,0.954-3.334,1.549-4.976,2.374c-0.778,0.393-1.366-0.033-1.669-0.789
			c-0.43-1.066-0.818-2.156-1.138-3.26c-0.609-2.108-1.725-3.811-3.403-5.167c-1.428-1.153-2.761-2.433-4.17-3.609
			c-0.464-0.386-1.106-1.044-1.375,0.212c-1.82,0.054-1.316,2.733-3.048,2.94c-0.355,0.042-0.301,0.538-0.208,0.873
			c0.729,2.632,0.806,5.412,1.79,7.99c0.208,0.546,0.451,1.04,0.768,1.524c0.745,1.141,1.347,2.382,1.092,3.787
			c-0.503,2.768,0.695,4.899,2.38,6.795c0.66,0.743,0.765,1.256,0.328,2.122c-0.662,1.313-1.383,2.582-2.175,3.809
			c-0.359,0.552-0.708,1.116-1.002,1.708c-0.744,1.499-0.609,3.173,0.3,4.188c0.809,0.905,2.719,1.271,4.005,0.539
			c2.988-1.706,6.164-1.441,9.359-0.979c0.597,0.088,1.382,0.397,1.601,0.996c0.26,0.703-0.605,0.94-0.969,1.392
			c-1.702,2.114-3.885,3.328-6.449,4.007c-1.132,0.301-2.068,1.092-2.51,2.417c-1.249,3.738-2.579,7.446-3.876,11.167
			c-0.88,2.521-2.02,4.912-3.222,7.272c-0.293,0.575-0.709,0.668-1.265,0.526c-0.654-0.164-0.927,0.163-0.669,0.773
			c0.582,1.377-0.131,2.519-0.336,3.791c-0.294,1.819-1.13,3.547-0.904,5.464c0.032,0.286,0.096,0.576,0.083,0.86
			c-0.059,1.28-0.007,2.394,1.738,1.8c0.181-0.062,0.495,0.213,0.721,0.374c0.748,0.533,1.299,0.084,1.853-0.355
			c0.624-0.497,0.644-1.197,0.299-1.81c-0.471-0.841-0.551-1.609-0.08-2.432c0.044-0.081,0.068-0.182,0.074-0.275
			c0.284-4.927,2.822-9.077,4.137-13.649c0.315-1.097,0.829-2.126,1.169-3.216c1.234-3.951,3.492-7.219,6.328-9.999
			c1.728-1.695,3.822-2.903,6.297-3.249c2.636-0.369,5.253-0.868,7.876-1.309c1.629-0.539,3.304-0.755,4.863-1.557
			c0.801-0.412,1.743-0.598,2.668-0.141c0.203,0.102,0.548,0.137,0.432,0.424c-0.622,1.562,0.208,1.198,1.075,0.974
			c0.964-0.25,1.486,0.235,1.575,1.267c0.25,2.986,0.308,5.975-0.578,8.834c-0.848,2.742,0.159,4.736,2.047,6.529
			c2.5,2.374,5.081,4.669,6.953,7.671c0.225,0.358,0.563,0.773,0.929,0.814c2.782,3.14,5.055,6.681,7.481,10.102
			c1.027,1.449,3.439,0.063,2.399-1.403c-2.763-3.897-5.354-7.943-8.632-11.438c-0.354-1.161-1.294-1.911-2.02-2.792
			c-0.893-1.084-1.973-1.987-2.982-2.955c-1.627-1.556-2.644-3.582-2.689-5.958c-0.042-2.304,0.191-4.581,0.789-6.798
			c0.407-1.513,1.541-2.572,2.418-3.71c5.542-7.193,11.013-14.45,16.537-21.658c2.002-2.613,3.954-5.223,5.592-8.1
			c0.784-1.374,1.236-2.887,1.717-4.366c0.77-2.357,2.604-4.159,2.968-6.706c0.181-1.27,0.656-2.507,0.046-3.805
			c-0.113-0.237-0.125-0.596-0.042-0.845c0.945-2.849,2.225-5.41,4.889-6.97c2.608-1.527,4.71-1.054,7.595-1.158
			C227.215,144.02,225.842,139.104,226.217,139.242z M220.296,138.954c-1.228,0.206-2.391-0.618-2.598-1.841
			c-0.206-1.223,0.625-2.382,1.853-2.59c1.229-0.206,2.39,0.618,2.595,1.841C222.352,137.587,221.523,138.747,220.296,138.954z"/>
		<path fill="#010101" d="M242.996,144.427c-0.722-0.635-1.629-0.866-1.904-1.075c-0.468-0.356-7.395-3.093-9.868-4.361
			c-0.096-0.05-0.787-0.259-0.787-0.259l-3.103,1.302l0.69,3.381c0,0,1.806-0.191,2.546-0.015c3.044,0.725,6.1,1.823,9.229,2.605
			c0.858,0.216,1.89,0.167,2.707,0.064c0.819-0.103,1.42-0.26,1.42-0.26S243.5,144.87,242.996,144.427z"/>
	</g>
	<g>
		<path fill="#010101" d="M198.525,354.241c0,0.261-0.081,0.393-0.245,0.393c-0.262,0-0.668,0.006-1.217,0.019
			c-0.476,0.013-0.833,0.017-1.07,0.017c-0.238,0-0.362-0.059-0.376-0.179c-0.012-0.118-0.019-0.875-0.019-2.271
			c0-0.239,0.07-0.36,0.208-0.36c0.137,0,0.486-0.007,1.05-0.026c0.562-0.017,1.013-0.026,1.35-0.026c0.2,0,0.301,0.061,0.301,0.18
			C198.519,352.319,198.525,353.072,198.525,354.241z"/>
		<path fill="#010101" d="M205.503,352.355c0,2.002-1,3.004-3.001,3.004c-1.038,0-1.781-0.25-2.233-0.75
			c-0.424-0.466-0.636-1.217-0.636-2.254v-8.282c0-1.301,0.274-2.226,0.825-2.772c0.45-0.455,1.131-0.68,2.044-0.68
			c0.977,0,1.688,0.195,2.14,0.589c0.573,0.5,0.861,1.383,0.861,2.647V352.355z M203.122,351.551v-7.247
			c0-0.703-0.175-1.054-0.526-1.054c-0.388,0-0.58,0.357-0.58,1.073v7.245c0,0.394,0.044,0.642,0.131,0.742
			c0.087,0.102,0.237,0.153,0.449,0.153C202.946,352.463,203.122,352.159,203.122,351.551z"/>
		<path fill="#010101" d="M213.935,355.169c0.062,0.264,0,0.401-0.188,0.413c-0.239,0.024-0.97,0.017-2.194-0.018
			c-0.139,0-0.219-0.16-0.243-0.483c-0.064-0.811-0.095-1.711-0.095-2.702c0-1.799-0.332-2.701-0.994-2.701
			c-0.088-0.024-0.164-0.024-0.227,0c-0.087,0.036-0.131,0.168-0.131,0.395c0,1.871-0.005,3.518-0.018,4.936
			c0,0.312-0.069,0.471-0.205,0.484c-0.676,0.071-1.32,0.083-1.933,0.035c-0.151-0.012-0.226-0.187-0.226-0.518v-13.758
			c0-0.213,0.113-0.321,0.341-0.321c0.692,0,1.636-0.004,2.832-0.018c0.779,0,1.439,0.155,1.98,0.463
			c0.592,0.347,0.888,0.805,0.888,1.378l-0.02,3.519c0,0.583-0.181,1.084-0.542,1.5c-0.251,0.3-0.532,0.502-0.844,0.608
			c-0.101,0.035-0.15,0.071-0.15,0.107c0,0.023,0.05,0.054,0.15,0.09c0.237,0.07,0.487,0.218,0.75,0.444
			c0.587,0.49,0.881,1.675,0.881,3.558C213.747,353.784,213.81,354.645,213.935,355.169z M211.232,344.258
			c0-0.788-0.273-1.163-0.824-1.127c-0.126,0.025-0.219,0.035-0.282,0.035c-0.111,0-0.168,0.101-0.168,0.304v3.135
			c0,0.333,0.087,0.504,0.263,0.517c0.061,0.012,0.137,0.012,0.224,0c0.276,0,0.463-0.131,0.564-0.394
			C211.157,346.345,211.232,345.522,211.232,344.258z"/>
		<path fill="#010101" d="M222.466,355.057c0,0.321-0.062,0.48-0.188,0.48h-0.524c-0.114,0-0.195-0.075-0.243-0.227
			c-0.052-0.151-0.132-0.355-0.246-0.614c-0.213,0.563-0.913,0.841-2.101,0.841c-1.286,0-2.194-0.307-2.719-0.925
			c-0.462-0.545-0.688-1.448-0.675-2.707l0.038-7.261c0.012-1.473,0.269-2.468,0.77-2.991c0.45-0.462,1.256-0.694,2.419-0.694
			c1.389,0,2.331,0.333,2.832,0.999c0.376,0.474,0.568,1.277,0.582,2.407c0.038,1.06,0.05,1.838,0.038,2.336
			c0,0.203-0.082,0.303-0.243,0.303c-0.439,0.012-1.12,0.007-2.046-0.017c-0.149,0-0.231-0.089-0.245-0.267
			c-0.023-0.7-0.049-1.394-0.073-2.083c-0.088-0.949-0.319-1.423-0.695-1.423c-0.462,0-0.694,0.47-0.694,1.41v7.518
			c0,0.19,0.063,0.417,0.188,0.678c0.149,0.321,0.324,0.482,0.523,0.482c0.502,0,0.75-0.643,0.75-1.932v-0.912
			c0-0.156-0.049-0.227-0.149-0.214h-0.45c-0.113,0-0.169-0.055-0.169-0.162v-1.735c0-0.179,0.094-0.269,0.282-0.269
			c0.663,0,1.582,0.006,2.757,0.018c0.188,0,0.281,0.102,0.281,0.305V355.057z"/>
		<path fill="#010101" d="M227.22,354.817c0,0.263-0.082,0.394-0.246,0.394c-0.261,0-0.667,0.004-1.217,0.018
			c-0.477,0.012-0.832,0.018-1.07,0.018c-0.238,0-0.362-0.061-0.376-0.18c-0.012-0.118-0.018-0.876-0.018-2.272
			c0-0.238,0.069-0.356,0.206-0.356c0.138,0,0.488-0.009,1.053-0.027c0.561-0.019,1.012-0.027,1.349-0.027
			c0.2,0,0.301,0.059,0.301,0.179C227.213,352.897,227.22,353.648,227.22,354.817z"/>
		<path fill="#010101" d="M236.609,355.798c0.012,0.072-0.044,0.106-0.168,0.106c-0.175,0-0.501,0-0.977,0
			c-0.475-0.011-0.889-0.017-1.237-0.017c-0.114,0-0.257-0.387-0.431-1.163c-0.125-0.583-0.218-1.085-0.281-1.501
			c-0.012-0.084-0.083-0.126-0.207-0.126h-0.733c-0.087,0-0.142,0.042-0.167,0.126c-0.113,0.725-0.262,1.564-0.45,2.521
			c-0.05,0.106-0.108,0.161-0.168,0.161h-2.308c-0.201,0-0.28-0.071-0.243-0.214c0.424-2.439,0.85-4.883,1.275-7.333
			c0.838-4.71,1.336-7.074,1.5-7.084c0.675-0.036,1.35-0.036,2.026,0c0.149,0.01,0.614,2.374,1.39,7.084
			C235.827,350.835,236.221,353.317,236.609,355.798z M233.345,350.841c-0.188-1.359-0.307-2.04-0.357-2.04
			c-0.063,0-0.137,0.293-0.226,0.877c-0.048,0.382-0.098,0.771-0.149,1.163c-0.012,0.037,0.047,0.063,0.179,0.082
			c0.132,0.018,0.252,0.021,0.366,0.009C233.283,350.92,233.345,350.889,233.345,350.841z"/>
		<path fill="#010101" d="M245.153,354.822c0.063,0.261,0,0.398-0.188,0.41c-0.237,0.023-0.969,0.018-2.194-0.018
			c-0.137,0-0.219-0.16-0.244-0.483c-0.062-0.812-0.094-1.711-0.094-2.701c0-1.801-0.332-2.702-0.994-2.702
			c-0.087-0.023-0.162-0.023-0.224,0c-0.089,0.035-0.131,0.168-0.131,0.394c0,1.872-0.008,3.518-0.02,4.936
			c0,0.311-0.07,0.472-0.206,0.483c-0.676,0.072-1.319,0.085-1.933,0.035c-0.149-0.01-0.224-0.184-0.224-0.517v-13.757
			c0-0.215,0.113-0.321,0.339-0.321c0.692,0,1.636-0.006,2.832-0.019c0.78,0,1.44,0.155,1.981,0.464
			c0.592,0.345,0.887,0.804,0.887,1.376l-0.018,3.521c0,0.583-0.183,1.084-0.544,1.5c-0.25,0.299-0.532,0.501-0.844,0.608
			c-0.101,0.035-0.149,0.071-0.149,0.106c0,0.024,0.049,0.054,0.149,0.09c0.237,0.072,0.488,0.221,0.751,0.446
			c0.587,0.488,0.881,1.673,0.881,3.555C244.966,353.435,245.028,354.298,245.153,354.822z M242.452,343.907
			c0-0.785-0.274-1.162-0.825-1.125c-0.126,0.023-0.22,0.036-0.282,0.036c-0.112,0-0.168,0.101-0.168,0.303v3.133
			c0,0.333,0.086,0.506,0.262,0.516c0.062,0.012,0.138,0.012,0.225,0c0.275,0,0.463-0.13,0.563-0.392
			C242.377,345.996,242.452,345.173,242.452,343.907z"/>
	</g>
	
		<rect x="153.696" y="315.537" transform="matrix(0.0356 0.9994 -0.9994 0.0356 488.9666 124.9328)" fill="#FFFFFF" width="52.111" height="0.556"/>
	
		<rect x="189.227" y="303.068" transform="matrix(0.0424 0.9991 -0.9991 0.0424 499.8582 85.1604)" fill="#FFFFFF" width="32.552" height="0.557"/>
	<rect x="226.465" y="239.763" fill="#FFFFFF" width="0.556" height="40.62"/>
	
		<rect x="113.641" y="264.492" transform="matrix(0.08 0.9968 -0.9968 0.08 391.5508 105.3064)" fill="#FFFFFF" width="50.173" height="0.556"/>
	<rect x="209.729" y="340.392" fill="#FFFFFF" width="0.274" height="9.387"/>
	<rect x="202.432" y="339.56" fill="#FFFFFF" width="0.274" height="17.444"/>
	<rect x="232.782" y="339.868" fill="#FFFFFF" width="0.273" height="15.669"/>
	<rect x="240.977" y="338.323" fill="#FFFFFF" width="0.231" height="11.032"/>
	
		<rect x="217.37" y="132.793" transform="matrix(0.0018 1 -1 0.0018 352.2505 -86.6865)" fill="#FFFFFF" width="4.353" height="0.61"/>
</g>
<g>
	
		<rect x="335.344" y="52.454" fill="none" stroke="#231F20" stroke-width="2.2234" stroke-miterlimit="10" width="176.762" height="340.157"/>
	<g>
		<path fill="#010101" stroke="#121112" stroke-width="0.5559" stroke-miterlimit="10" d="M385.376,254.995
			c-0.328-3.908-1.271-7.017-2.831-9.33c-2.03-2.947-4.872-4.25-8.529-3.91c-4.814,0.369-7.9,0.645-9.248,0.827
			c-0.492,0.077-0.715,0.379-0.672,0.907l3.473,41.479c0.049,0.599,0.363,0.873,0.943,0.824l8.291-0.694
			c7.346-0.617,10.603-5.864,9.774-15.751L385.376,254.995z M377.75,274.529c-0.848,2.142-1.797,3.237-2.843,3.287
			c-0.304,0.026-0.478-0.24-0.523-0.797c-0.372-4.442-0.864-10.296-1.472-17.561c-0.611-7.3-0.922-11.02-0.935-11.169
			c-0.044-0.52,0.103-0.79,0.449-0.82c1.114-0.095,2.212,0.514,3.294,1.822c1.082,1.309,1.688,2.741,1.82,4.296l1.162,13.895
			C378.918,270.036,378.6,272.386,377.75,274.529z"/>
		<path fill="#010101" stroke="#121112" stroke-width="0.5559" stroke-miterlimit="10" d="M405.517,275.081
			c-2.459,0.049-4.362,0.084-5.713,0.113c-0.621-0.046-0.939-0.261-0.946-0.639c-0.173-3.417-0.185-5.74-0.037-6.969
			c0.063-0.44,0.267-0.665,0.611-0.67l4.676-0.092c0.381-0.008,0.566-0.218,0.56-0.632c-0.007-0.294,0.007-1.284,0.045-2.969
			c0.039-1.446,0.038-2.437-0.006-2.968c-0.043-0.354-0.286-0.525-0.734-0.517c-2.471,0.108-4.066,0.126-4.787,0.05
			c-0.416-0.051-0.623-0.236-0.631-0.563c-0.051-0.827-0.076-2.065-0.074-3.718c-0.002-1.95-0.006-2.998-0.009-3.146
			c-0.008-0.324,0.247-0.492,0.761-0.503c2.578-0.049,4.558-0.089,5.932-0.115c0.379-0.009,0.564-0.197,0.557-0.565
			c-0.008-0.372-0.006-1.25,0-2.639c-0.023-1.121-0.039-1.919-0.049-2.391c-0.007-0.353-0.288-0.525-0.84-0.515
			c-5.957,0.059-10.27,0.129-12.934,0.212c-0.381,0.006-0.569,0.176-0.564,0.498l0.687,34.588c0.01,0.53,0.206,0.809,0.592,0.829
			c3.931,0.187,8.294,0.131,13.085-0.169c0.555-0.042,0.828-0.24,0.822-0.593c-0.059-1.178-0.111-2.965-0.158-5.358
			C406.353,275.256,406.071,275.07,405.517,275.081z"/>
		<path fill="#010101" stroke="#121112" stroke-width="0.5559" stroke-miterlimit="10" d="M425.455,274.827l-5.403,0.086
			c-0.761-0.019-1.165-0.367-1.211-1.045c-0.147-2.828-0.249-7.881-0.296-15.167c-0.037-6.692-0.117-10.686-0.241-11.982
			c-0.004-0.296,0.007-0.576,0.039-0.842c-0.076-0.322-0.34-0.467-0.785-0.431c-3.013,0.138-4.883,0.169-5.613,0.091
			c-0.624-0.08-0.928,0.296-0.914,1.121c0.05,7.561,0.282,18.838,0.696,33.833c0.011,0.65,0.274,1,0.794,1.054
			c1.146,0.1,3.172,0.096,6.08-0.009c4.775-0.137,7.063-0.202,6.855-0.198c0.864-0.015,1.31-0.291,1.336-0.826
			c-0.002-2.229-0.029-3.864-0.078-4.903C426.706,275.074,426.284,274.813,425.455,274.827z"/>
		<path fill="#010101" stroke="#121112" stroke-width="0.5559" stroke-miterlimit="10" d="M443.813,245.396
			c-6.387,0.503-11.72,0.949-15.999,1.339c-0.483,0.04-0.761,0.449-0.834,1.224c-0.091,0.57-0.061,1.354,0.093,2.348
			c0.196,1.525,0.283,2.126,0.256,1.801c0.031,0.382,0.324,0.567,0.879,0.548l3.832-0.32c0.412-0.035,0.636,0.154,0.671,0.566
			l2.439,28.508c0.038,0.472,0.286,0.703,0.735,0.696c2.708-0.049,4.675-0.201,5.906-0.451c0.377-0.062,0.545-0.328,0.505-0.798
			l-2.488-28.503c-0.038-0.443,0.306-0.694,1.031-0.756c0.481-0.039,1.103-0.091,1.862-0.155c0.797-0.038,1.316-0.065,1.557-0.086
			c0.586-0.049,0.862-0.278,0.828-0.692c-0.066-1.211-0.211-2.723-0.432-4.541C444.575,245.595,444.296,245.354,443.813,245.396z"/>
		<path fill="#010101" stroke="#121112" stroke-width="0.5559" stroke-miterlimit="10" d="M469.858,260.455
			c-3.036-12.863-4.82-19.302-5.352-19.322c-2.4-0.047-4.797,0.004-7.191,0.156c-0.578,0.047-2.21,6.561-4.9,19.545
			c-1.363,6.755-2.722,13.496-4.084,20.219c-0.121,0.396,0.168,0.586,0.879,0.571l8.188-0.181c0.222-0.005,0.416-0.158,0.589-0.458
			c0.607-2.633,1.09-4.947,1.447-6.946c0.083-0.233,0.279-0.353,0.592-0.36l2.594-0.058c0.443-0.01,0.691,0.099,0.74,0.328
			c0.25,1.14,0.611,2.505,1.088,4.1c0.67,2.111,1.203,3.165,1.602,3.154c1.244-0.025,2.71-0.043,4.395-0.048
			c1.688-0.037,2.84-0.062,3.463-0.076c0.441-0.009,0.641-0.111,0.592-0.308C472.975,273.999,471.426,267.227,469.858,260.455z
			 M462.525,266.665c-0.734,0.098-1.525,0.093-2.388-0.006c-0.857-0.104-1.25-0.274-1.175-0.514c0.267-2.646,0.534-5.25,0.806-7.819
			c0.484-3.925,0.932-5.898,1.342-5.905c0.322-0.009,1.203,4.528,2.623,13.619C463.737,266.361,463.334,266.568,462.525,266.665z"/>
	</g>
	<g>
		<path fill="#010101" stroke="#12100F" stroke-width="0.5559" stroke-miterlimit="10" d="M385.989,326.873l-6.351,0.138
			c-0.898-0.016-1.373-0.422-1.432-1.219c-0.193-3.325-0.34-9.266-0.44-17.832c-0.085-7.87-0.206-12.566-0.358-14.087
			c-0.006-0.347,0.004-0.675,0.039-0.989c-0.09-0.379-0.398-0.545-0.926-0.499c-3.539,0.178-5.738,0.224-6.596,0.139
			c-0.734-0.089-1.09,0.353-1.07,1.323c0.107,8.889,0.451,22.149,1.027,39.776c0.016,0.765,0.33,1.174,0.94,1.23
			c1.349,0.11,3.73,0.094,7.148-0.049c5.614-0.188,8.301-0.281,8.057-0.276c1.018-0.02,1.539-0.347,1.566-0.976
			c-0.016-2.621-0.055-4.544-0.119-5.766C387.46,327.158,386.964,326.853,385.989,326.873z"/>
		<path fill="#010101" stroke="#12100F" stroke-width="0.5559" stroke-miterlimit="10" d="M400.463,309.662
			c-2.69,0.014-4.909,0.039-6.657,0.075c-0.329,0.006-0.547,0.143-0.664,0.403c-0.078,0.175-0.117,0.368-0.113,0.585
			c0.234,8.926,0.385,17.035,0.457,24.326c0.014,0.647,0.428,0.984,1.242,1.01c3.302,0.08,5.439,0.035,6.415-0.137
			c0.647-0.099,0.968-0.408,0.956-0.925c-0.212-10.029-0.387-18.18-0.52-24.456C401.526,309.983,401.154,309.691,400.463,309.662z"
			/>
		<path fill="#010101" stroke="#12100F" stroke-width="0.5559" stroke-miterlimit="10" d="M424.743,315.436
			c-0.953-1.078-2.027-1.851-3.219-2.312c1.666-0.89,2.752-1.892,3.268-3.001c0.376-0.833,0.563-2.151,0.562-3.954l-0.05-4.857
			c-0.004-1.801-0.803-3.366-2.402-4.692c-1.6-1.322-3.473-1.963-5.613-1.919l-10.069,0.214c-0.214,0.005-0.319,0.189-0.31,0.556
			l0.772,36.459c0.009,0.456,0.193,0.684,0.554,0.675l5.156-0.108c4.477-0.095,7.656-0.469,9.54-1.12
			c2.454-0.814,3.661-2.307,3.615-4.476l-0.165-7.74C426.354,317.879,425.81,316.635,424.743,315.436z M414.137,309.383
			c-0.086-4.057-0.165-6.852-0.231-8.379c-0.007-0.274,0.098-0.43,0.313-0.464c0.215-0.033,0.625-0.043,1.234-0.024
			c1.109-0.026,1.852,0.279,2.224,0.914c0.26,0.421,0.383,1.152,0.367,2.19l-0.019,4.17c-0.02,0.704-0.429,1.254-1.228,1.653
			c-0.797,0.398-1.554,0.576-2.272,0.528C414.276,309.978,414.146,309.781,414.137,309.383z M416.054,326.297l-0.752,0.016
			c-0.395,0.009-0.595-0.185-0.603-0.583l-0.173-8.199c-0.008-0.335,0.113-0.505,0.362-0.511c2.399-0.052,3.638,0.794,3.71,2.534
			l0.109,2.702C418.8,324.91,417.916,326.259,416.054,326.297z"/>
		<path fill="#010101" stroke="#12100F" stroke-width="0.5559" stroke-miterlimit="10" d="M453.018,326.007
			c-0.116-5.477-1.149-8.906-3.091-10.287c-0.869-0.639-1.69-1.057-2.471-1.248c-0.328-0.097-0.491-0.181-0.493-0.25
			c0-0.105,0.158-0.213,0.482-0.324c1.009-0.331,1.913-0.94,2.711-1.825c1.153-1.237,1.712-2.708,1.675-4.405l-0.154-10.248
			c-0.035-1.663-1.025-2.978-2.974-3.942c-1.778-0.864-3.939-1.27-6.479-1.216c-3.891,0.118-6.963,0.2-9.215,0.248
			c-0.738,0.016-1.1,0.336-1.086,0.961l0.851,40.04c0.019,0.973,0.274,1.469,0.765,1.495c1.996,0.095,4.092,0.017,6.287-0.24
			c0.446-0.043,0.66-0.516,0.641-1.419c-0.047-4.131-0.129-8.921-0.246-14.369c-0.012-0.659,0.122-1.045,0.406-1.158
			c0.201-0.072,0.445-0.077,0.731-0.013c2.157-0.046,3.292,2.552,3.403,7.793c0.063,2.882,0.219,5.5,0.473,7.855
			c0.102,0.936,0.375,1.399,0.824,1.39c3.99,0.018,6.373-0.017,7.144-0.101c0.61-0.047,0.805-0.45,0.586-1.207
			C453.347,332.019,453.091,329.51,453.018,326.007z M443.74,309.161c-0.311,0.77-0.913,1.166-1.808,1.184
			c-0.285,0.04-0.528,0.044-0.732,0.015c-0.571-0.024-0.867-0.517-0.888-1.486l-0.194-9.122c-0.011-0.586,0.167-0.885,0.534-0.892
			c0.2-0.006,0.505-0.045,0.911-0.125c1.789-0.141,2.707,0.934,2.756,3.225C444.397,305.639,444.204,308.039,443.74,309.161z"/>
		<path fill="#010101" stroke="#12100F" stroke-width="0.5559" stroke-miterlimit="10" d="M480.065,329.314
			c-0.009-0.507-0.381-0.75-1.109-0.736c-3.244,0.068-5.752,0.121-7.533,0.16c-0.823-0.059-1.238-0.339-1.25-0.84
			c-0.232-4.502-0.252-7.564-0.057-9.188c0.076-0.577,0.344-0.873,0.802-0.881l6.159-0.132c0.504-0.011,0.75-0.287,0.739-0.834
			c-0.009-0.389,0.009-1.693,0.054-3.914c0.051-1.908,0.044-3.214-0.014-3.913c-0.055-0.466-0.378-0.693-0.967-0.681
			c-3.26,0.15-5.361,0.173-6.314,0.075c-0.546-0.064-0.822-0.311-0.828-0.74c-0.071-1.088-0.106-2.722-0.107-4.903
			c-0.008-2.569-0.015-3.953-0.019-4.147c-0.007-0.428,0.323-0.65,1.003-0.663c3.4-0.074,6.006-0.129,7.818-0.167
			c0.498-0.011,0.744-0.257,0.734-0.745c-0.01-0.486-0.016-1.645-0.006-3.476c-0.031-1.476-0.055-2.527-0.067-3.152
			c-0.011-0.466-0.382-0.692-1.112-0.677c-7.85,0.088-13.535,0.19-17.045,0.301c-0.504,0.012-0.75,0.231-0.741,0.662l0.968,45.591
			c0.016,0.701,0.273,1.063,0.781,1.094c5.18,0.241,10.93,0.159,17.244-0.251c0.734-0.053,1.096-0.315,1.085-0.78
			C480.202,334.821,480.135,332.466,480.065,329.314z"/>
		<circle fill="#010101" stroke="#12100F" stroke-width="0.5559" stroke-miterlimit="10" cx="397.296" cy="303.345" r="4.33"/>
	</g>
	<g>
		<path fill="#010101" d="M501.22,108.748c-10.158-24.2-41.023-34.549-64.429-23.697c-2.891,1.34-0.378,5.599,2.493,4.268
			c20.256-9.391,48.32-0.338,57.17,20.743C497.669,112.954,502.453,111.685,501.22,108.748z"/>
		<path fill="#010101" d="M443.685,97.851c-2.607,1.087-1.465,5.393,1.183,4.289c14.567-6.075,31.422,0.202,39.988,13.152
			c1.576,2.381,5.429,0.155,3.841-2.245C479.134,98.591,460.122,90.996,443.685,97.851z"/>
		<path fill="#010101" d="M465.152,110.432c-5.3-1.955-11.316-2.079-16.493,0.27c-2.174,0.987-0.287,4.181,1.871,3.2
			c4.145-1.88,8.87-1.427,13.095-0.082c3.687,1.175,7.71,3.48,9.471,7.074c1.052,2.146,4.248,0.267,3.2-1.871
			C474.167,114.674,469.521,112.042,465.152,110.432z"/>
		<path fill="#010101" d="M453.728,120.744c-1.811,0.584-1.037,3.448,0.789,2.859c2.844-0.918,5.839,0.125,7.807,2.3
			c1.287,1.421,3.378-0.682,2.099-2.097C461.782,120.891,457.517,119.521,453.728,120.744z"/>
	</g>
	<g>
		<circle fill="#010101" cx="454.584" cy="136.296" r="1.036"/>
		<path fill="#010101" d="M460.879,139.242c0.706-0.119,1.468-0.634,3.435-1.15c-2.268-1.206-3.401-2.407-5.316-4.056
			c-2.864-2.467-6.762-2.372-9.234-0.319c-1.919,1.593-2.795,3.85-3.956,5.932c-1.615,2.898-2.295,6.232-3.674,9.249
			c-0.909,1.993-2.451,3.526-3.585,5.369c-0.676,1.1-2.015,1.702-3.269,1.95c-2.276,0.446-4.522,1.278-6.921,0.787
			c-0.348-0.07-0.73,0.056-1.092,0.113c-2.586,0.41-5.162,0.883-7.758,1.224c-2.924,0.385-5.664,1.522-8.51,2.101
			c-5.571,1.133-9.666,4.964-14.332,7.736c-1.609,0.954-3.335,1.549-4.977,2.374c-0.777,0.393-1.365-0.033-1.668-0.789
			c-0.431-1.066-0.818-2.156-1.139-3.26c-0.609-2.108-1.725-3.811-3.402-5.167c-1.428-1.153-2.761-2.433-4.171-3.609
			c-0.463-0.386-1.105-1.044-1.375,0.212c-1.82,0.054-1.316,2.733-3.047,2.94c-0.355,0.042-0.301,0.538-0.209,0.873
			c0.729,2.632,0.806,5.412,1.79,7.99c0.208,0.546,0.451,1.04,0.768,1.524c0.745,1.141,1.347,2.382,1.093,3.787
			c-0.504,2.768,0.694,4.899,2.38,6.795c0.659,0.743,0.765,1.256,0.327,2.122c-0.662,1.313-1.383,2.582-2.174,3.809
			c-0.359,0.552-0.709,1.116-1.002,1.708c-0.744,1.499-0.609,3.173,0.3,4.188c0.809,0.905,2.72,1.271,4.005,0.539
			c2.988-1.706,6.164-1.441,9.359-0.979c0.597,0.088,1.382,0.397,1.601,0.996c0.26,0.703-0.605,0.94-0.969,1.392
			c-1.701,2.114-3.885,3.328-6.449,4.007c-1.132,0.301-2.068,1.092-2.51,2.417c-1.249,3.738-2.579,7.446-3.876,11.167
			c-0.879,2.521-2.02,4.912-3.222,7.272c-0.293,0.575-0.71,0.668-1.265,0.526c-0.654-0.164-0.928,0.163-0.669,0.773
			c0.581,1.377-0.132,2.519-0.337,3.791c-0.293,1.819-1.129,3.547-0.904,5.464c0.033,0.286,0.096,0.576,0.084,0.86
			c-0.059,1.28-0.008,2.394,1.737,1.8c0.181-0.062,0.495,0.213,0.721,0.374c0.747,0.533,1.3,0.084,1.853-0.355
			c0.623-0.497,0.644-1.197,0.299-1.81c-0.471-0.841-0.551-1.609-0.08-2.432c0.045-0.081,0.068-0.182,0.074-0.275
			c0.283-4.927,2.822-9.077,4.137-13.649c0.314-1.097,0.829-2.126,1.169-3.216c1.234-3.951,3.492-7.219,6.328-9.999
			c1.729-1.695,3.822-2.903,6.297-3.249c2.637-0.369,5.254-0.868,7.877-1.309c1.629-0.539,3.304-0.755,4.863-1.557
			c0.801-0.412,1.742-0.598,2.668-0.141c0.202,0.102,0.547,0.137,0.432,0.424c-0.622,1.562,0.207,1.198,1.075,0.974
			c0.964-0.25,1.486,0.235,1.575,1.267c0.25,2.986,0.308,5.975-0.578,8.834c-0.848,2.742,0.159,4.736,2.047,6.529
			c2.5,2.374,5.081,4.669,6.953,7.671c0.225,0.358,0.563,0.773,0.93,0.814c2.781,3.14,5.055,6.681,7.48,10.102
			c1.027,1.449,3.439,0.063,2.399-1.403c-2.763-3.897-5.354-7.943-8.632-11.438c-0.354-1.161-1.295-1.911-2.02-2.792
			c-0.893-1.084-1.973-1.987-2.982-2.955c-1.627-1.556-2.645-3.582-2.689-5.958c-0.041-2.304,0.191-4.581,0.789-6.798
			c0.407-1.513,1.541-2.572,2.419-3.71c5.542-7.193,11.013-14.45,16.536-21.658c2.003-2.613,3.954-5.223,5.593-8.1
			c0.784-1.374,1.235-2.887,1.717-4.366c0.77-2.357,2.604-4.159,2.968-6.706c0.182-1.27,0.656-2.507,0.047-3.805
			c-0.113-0.237-0.125-0.596-0.043-0.845c0.945-2.849,2.225-5.41,4.889-6.97c2.608-1.527,4.711-1.054,7.596-1.158
			C461.877,144.02,460.505,139.104,460.879,139.242z M454.958,138.954c-1.228,0.206-2.391-0.618-2.598-1.841
			c-0.205-1.223,0.625-2.382,1.853-2.59c1.229-0.206,2.39,0.618,2.595,1.841C457.015,137.587,456.186,138.747,454.958,138.954z"/>
		<path fill="#010101" d="M477.658,144.427c-0.722-0.635-1.63-0.866-1.904-1.075c-0.468-0.356-7.395-3.093-9.868-4.361
			c-0.096-0.05-0.787-0.259-0.787-0.259l-3.104,1.302l0.691,3.381c0,0,1.805-0.191,2.546-0.015c3.044,0.725,6.1,1.823,9.229,2.605
			c0.857,0.216,1.89,0.167,2.707,0.064c0.818-0.103,1.42-0.26,1.42-0.26S478.161,144.87,477.658,144.427z"/>
	</g>
	<g>
		<path fill="#010101" d="M433.188,354.241c0,0.261-0.081,0.393-0.245,0.393c-0.262,0-0.668,0.006-1.217,0.019
			c-0.476,0.013-0.833,0.017-1.07,0.017c-0.238,0-0.362-0.059-0.376-0.179c-0.013-0.118-0.019-0.875-0.019-2.271
			c0-0.239,0.07-0.36,0.208-0.36s0.485-0.007,1.05-0.026c0.562-0.017,1.013-0.026,1.35-0.026c0.2,0,0.302,0.061,0.302,0.18
			C433.181,352.319,433.188,353.072,433.188,354.241z"/>
		<path fill="#010101" d="M440.165,352.355c0,2.002-1,3.004-3.001,3.004c-1.038,0-1.781-0.25-2.233-0.75
			c-0.424-0.466-0.635-1.217-0.635-2.254v-8.282c0-1.301,0.273-2.226,0.824-2.772c0.45-0.455,1.131-0.68,2.044-0.68
			c0.977,0,1.688,0.195,2.14,0.589c0.573,0.5,0.861,1.383,0.861,2.647V352.355z M437.784,351.551v-7.247
			c0-0.703-0.176-1.054-0.527-1.054c-0.387,0-0.58,0.357-0.58,1.073v7.245c0,0.394,0.045,0.642,0.131,0.742
			c0.088,0.102,0.238,0.153,0.449,0.153C437.608,352.463,437.784,352.159,437.784,351.551z"/>
		<path fill="#010101" d="M448.597,355.169c0.063,0.264,0,0.401-0.188,0.413c-0.238,0.024-0.97,0.017-2.194-0.018
			c-0.139,0-0.22-0.16-0.243-0.483c-0.064-0.811-0.095-1.711-0.095-2.702c0-1.799-0.331-2.701-0.994-2.701
			c-0.089-0.024-0.164-0.024-0.227,0c-0.087,0.036-0.132,0.168-0.132,0.395c0,1.871-0.005,3.518-0.018,4.936
			c0,0.312-0.068,0.471-0.205,0.484c-0.676,0.071-1.32,0.083-1.934,0.035c-0.15-0.012-0.225-0.187-0.225-0.518v-13.758
			c0-0.213,0.112-0.321,0.34-0.321c0.692,0,1.637-0.004,2.832-0.018c0.779,0,1.439,0.155,1.98,0.463
			c0.593,0.347,0.889,0.805,0.889,1.378l-0.021,3.519c0,0.583-0.181,1.084-0.542,1.5c-0.252,0.3-0.533,0.502-0.845,0.608
			c-0.101,0.035-0.15,0.071-0.15,0.107c0,0.023,0.05,0.054,0.15,0.09c0.237,0.07,0.487,0.218,0.751,0.444
			c0.586,0.49,0.881,1.675,0.881,3.558C448.409,353.784,448.472,354.645,448.597,355.169z M445.894,344.258
			c0-0.788-0.272-1.163-0.824-1.127c-0.125,0.025-0.219,0.035-0.281,0.035c-0.111,0-0.168,0.101-0.168,0.304v3.135
			c0,0.333,0.088,0.504,0.263,0.517c0.062,0.012,0.137,0.012,0.224,0c0.276,0,0.463-0.131,0.564-0.394
			C445.819,346.345,445.894,345.522,445.894,344.258z"/>
		<path fill="#010101" d="M457.128,355.057c0,0.321-0.062,0.48-0.188,0.48h-0.523c-0.114,0-0.195-0.075-0.244-0.227
			c-0.051-0.151-0.131-0.355-0.246-0.614c-0.213,0.563-0.912,0.841-2.1,0.841c-1.286,0-2.195-0.307-2.72-0.925
			c-0.462-0.545-0.688-1.448-0.675-2.707l0.037-7.261c0.012-1.473,0.27-2.468,0.77-2.991c0.45-0.462,1.257-0.694,2.42-0.694
			c1.389,0,2.33,0.333,2.832,0.999c0.376,0.474,0.568,1.277,0.582,2.407c0.037,1.06,0.049,1.838,0.037,2.336
			c0,0.203-0.082,0.303-0.243,0.303c-0.439,0.012-1.12,0.007-2.046-0.017c-0.149,0-0.231-0.089-0.244-0.267
			c-0.023-0.7-0.049-1.394-0.074-2.083c-0.088-0.949-0.318-1.423-0.694-1.423c-0.462,0-0.694,0.47-0.694,1.41v7.518
			c0,0.19,0.063,0.417,0.189,0.678c0.148,0.321,0.324,0.482,0.523,0.482c0.502,0,0.75-0.643,0.75-1.932v-0.912
			c0-0.156-0.049-0.227-0.15-0.214h-0.449c-0.113,0-0.169-0.055-0.169-0.162v-1.735c0-0.179,0.095-0.269,0.282-0.269
			c0.662,0,1.581,0.006,2.756,0.018c0.188,0,0.281,0.102,0.281,0.305V355.057z"/>
		<path fill="#010101" d="M461.882,354.817c0,0.263-0.082,0.394-0.246,0.394c-0.262,0-0.667,0.004-1.217,0.018
			c-0.477,0.012-0.832,0.018-1.07,0.018s-0.362-0.061-0.376-0.18c-0.012-0.118-0.019-0.876-0.019-2.272
			c0-0.238,0.07-0.356,0.206-0.356c0.138,0,0.488-0.009,1.053-0.027c0.562-0.019,1.012-0.027,1.349-0.027
			c0.199,0,0.301,0.059,0.301,0.179C461.875,352.897,461.882,353.648,461.882,354.817z"/>
		<path fill="#010101" d="M471.271,355.798c0.012,0.072-0.044,0.106-0.168,0.106c-0.176,0-0.501,0-0.977,0
			c-0.475-0.011-0.889-0.017-1.237-0.017c-0.114,0-0.257-0.387-0.431-1.163c-0.125-0.583-0.219-1.085-0.281-1.501
			c-0.013-0.084-0.083-0.126-0.207-0.126h-0.733c-0.087,0-0.142,0.042-0.167,0.126c-0.113,0.725-0.263,1.564-0.451,2.521
			c-0.05,0.106-0.107,0.161-0.168,0.161h-2.308c-0.201,0-0.28-0.071-0.243-0.214c0.424-2.439,0.85-4.883,1.275-7.333
			c0.838-4.71,1.336-7.074,1.5-7.084c0.676-0.036,1.35-0.036,2.025,0c0.15,0.01,0.614,2.374,1.391,7.084
			C470.489,350.835,470.884,353.317,471.271,355.798z M468.007,350.841c-0.188-1.359-0.307-2.04-0.357-2.04
			c-0.063,0-0.137,0.293-0.225,0.877c-0.049,0.382-0.098,0.771-0.15,1.163c-0.012,0.037,0.048,0.063,0.18,0.082
			c0.131,0.018,0.252,0.021,0.365,0.009C467.944,350.92,468.007,350.889,468.007,350.841z"/>
		<path fill="#010101" d="M479.815,354.822c0.063,0.261,0,0.398-0.188,0.41c-0.237,0.023-0.969,0.018-2.194-0.018
			c-0.138,0-0.22-0.16-0.244-0.483c-0.062-0.812-0.094-1.711-0.094-2.701c0-1.801-0.331-2.702-0.994-2.702
			c-0.087-0.023-0.161-0.023-0.224,0c-0.09,0.035-0.131,0.168-0.131,0.394c0,1.872-0.008,3.518-0.021,4.936
			c0,0.311-0.069,0.472-0.206,0.483c-0.676,0.072-1.319,0.085-1.934,0.035c-0.148-0.01-0.224-0.184-0.224-0.517v-13.757
			c0-0.215,0.112-0.321,0.339-0.321c0.692,0,1.637-0.006,2.832-0.019c0.78,0,1.44,0.155,1.981,0.464
			c0.592,0.345,0.888,0.804,0.888,1.376l-0.019,3.521c0,0.583-0.183,1.084-0.544,1.5c-0.25,0.299-0.533,0.501-0.845,0.608
			c-0.101,0.035-0.149,0.071-0.149,0.106c0,0.024,0.049,0.054,0.149,0.09c0.237,0.072,0.487,0.221,0.751,0.446
			c0.587,0.488,0.881,1.673,0.881,3.555C479.628,353.435,479.69,354.298,479.815,354.822z M477.114,343.907
			c0-0.785-0.274-1.162-0.824-1.125c-0.127,0.023-0.221,0.036-0.282,0.036c-0.112,0-0.168,0.101-0.168,0.303v3.133
			c0,0.333,0.087,0.506,0.262,0.516c0.062,0.012,0.138,0.012,0.226,0c0.275,0,0.463-0.13,0.563-0.392
			C477.039,345.996,477.114,345.173,477.114,343.907z"/>
	</g>
	
		<rect x="388.358" y="315.537" transform="matrix(0.0356 0.9994 -0.9994 0.0356 715.2736 -109.5808)" fill="#FFFFFF" width="52.111" height="0.557"/>
	
		<rect x="423.889" y="303.067" transform="matrix(0.0424 0.9991 -0.9991 0.0424 724.5662 -149.2907)" fill="#FFFFFF" width="32.552" height="0.557"/>
	<rect x="461.127" y="239.763" fill="#FFFFFF" width="0.556" height="40.62"/>
	
		<rect x="348.303" y="264.492" transform="matrix(0.08 0.9968 -0.9968 0.08 607.4409 -128.6039)" fill="#FFFFFF" width="50.173" height="0.557"/>
	<rect x="444.391" y="340.392" fill="#FFFFFF" width="0.274" height="9.387"/>
	<rect x="437.094" y="339.56" fill="#FFFFFF" width="0.274" height="17.444"/>
	<rect x="467.444" y="339.868" fill="#FFFFFF" width="0.273" height="15.669"/>
	<rect x="475.639" y="338.323" fill="#FFFFFF" width="0.23" height="11.032"/>
	
		<rect x="452.032" y="132.793" transform="matrix(0.0018 1 -1 0.0018 586.4915 -321.3483)" fill="#FFFFFF" width="4.353" height="0.61"/>
</g>
<g>
	
		<rect x="100.682" y="432.971" fill="none" stroke="#231F20" stroke-width="2.2234" stroke-miterlimit="10" width="176.761" height="340.158"/>
	<g>
		<path fill="#010101" stroke="#121112" stroke-width="0.5559" stroke-miterlimit="10" d="M150.713,635.512
			c-0.328-3.908-1.271-7.017-2.831-9.33c-2.03-2.947-4.872-4.25-8.529-3.91c-4.814,0.369-7.899,0.645-9.248,0.827
			c-0.492,0.077-0.715,0.38-0.672,0.907l3.473,41.479c0.05,0.598,0.364,0.873,0.943,0.824l8.292-0.694
			c7.345-0.616,10.603-5.864,9.774-15.751L150.713,635.512z M143.087,655.046c-0.847,2.142-1.796,3.237-2.842,3.286
			c-0.304,0.027-0.477-0.239-0.523-0.797c-0.373-4.441-0.865-10.296-1.472-17.561c-0.612-7.3-0.922-11.02-0.935-11.17
			c-0.044-0.52,0.103-0.789,0.449-0.819c1.114-0.095,2.212,0.515,3.294,1.821c1.081,1.309,1.688,2.742,1.819,4.297l1.162,13.895
			C144.256,650.553,143.937,652.903,143.087,655.046z"/>
		<path fill="#010101" stroke="#121112" stroke-width="0.5559" stroke-miterlimit="10" d="M170.855,655.598
			c-2.459,0.049-4.363,0.084-5.713,0.113c-0.622-0.046-0.939-0.261-0.946-0.639c-0.173-3.418-0.184-5.74-0.037-6.969
			c0.063-0.441,0.266-0.665,0.611-0.671l4.676-0.092c0.381-0.009,0.566-0.218,0.559-0.632c-0.006-0.294,0.007-1.284,0.045-2.969
			c0.039-1.447,0.038-2.438-0.006-2.969c-0.042-0.354-0.286-0.525-0.734-0.518c-2.471,0.108-4.067,0.127-4.788,0.051
			c-0.416-0.052-0.623-0.236-0.63-0.563c-0.051-0.827-0.076-2.065-0.074-3.718c-0.002-1.951-0.007-2.998-0.009-3.146
			c-0.008-0.324,0.247-0.492,0.76-0.504c2.579-0.049,4.558-0.088,5.932-0.114c0.379-0.009,0.564-0.197,0.557-0.565
			c-0.008-0.372-0.006-1.25,0-2.639c-0.023-1.121-0.039-1.92-0.049-2.391c-0.007-0.354-0.288-0.525-0.839-0.516
			c-5.958,0.059-10.271,0.129-12.934,0.213c-0.382,0.006-0.57,0.176-0.564,0.498l0.686,34.588c0.01,0.53,0.206,0.809,0.592,0.829
			c3.931,0.187,8.293,0.131,13.084-0.169c0.556-0.043,0.828-0.24,0.822-0.594c-0.058-1.178-0.111-2.965-0.157-5.357
			C171.69,655.773,171.409,655.588,170.855,655.598z"/>
		<path fill="#010101" stroke="#121112" stroke-width="0.5559" stroke-miterlimit="10" d="M190.793,655.344l-5.404,0.086
			c-0.76-0.019-1.165-0.367-1.21-1.045c-0.148-2.828-0.25-7.881-0.296-15.168c-0.037-6.691-0.117-10.686-0.241-11.981
			c-0.004-0.296,0.007-0.575,0.039-0.842c-0.076-0.322-0.339-0.467-0.785-0.431c-3.012,0.139-4.882,0.169-5.612,0.092
			c-0.625-0.08-0.929,0.295-0.914,1.121c0.049,7.561,0.282,18.838,0.696,33.832c0.011,0.65,0.274,1.001,0.794,1.055
			c1.146,0.1,3.172,0.096,6.08-0.01c4.776-0.137,7.063-0.202,6.855-0.198c0.865-0.015,1.31-0.29,1.336-0.825
			c-0.002-2.23-0.03-3.865-0.078-4.903C192.044,655.591,191.622,655.33,190.793,655.344z"/>
		<path fill="#010101" stroke="#121112" stroke-width="0.5559" stroke-miterlimit="10" d="M209.151,625.913
			c-6.387,0.503-11.719,0.948-15.999,1.339c-0.483,0.04-0.761,0.449-0.834,1.225c-0.091,0.57-0.061,1.354,0.093,2.348
			c0.196,1.525,0.283,2.127,0.255,1.801c0.032,0.383,0.325,0.568,0.879,0.549l3.832-0.32c0.413-0.035,0.636,0.154,0.671,0.566
			l2.439,28.508c0.039,0.473,0.286,0.703,0.736,0.697c2.708-0.049,4.674-0.201,5.906-0.451c0.376-0.063,0.545-0.328,0.504-0.799
			l-2.488-28.504c-0.038-0.443,0.306-0.693,1.031-0.756c0.481-0.038,1.103-0.09,1.862-0.154c0.797-0.038,1.316-0.065,1.557-0.086
			c0.586-0.049,0.862-0.279,0.828-0.692c-0.067-1.211-0.21-2.723-0.432-4.541C209.914,626.112,209.634,625.871,209.151,625.913z"/>
		<path fill="#010101" stroke="#121112" stroke-width="0.5559" stroke-miterlimit="10" d="M235.196,640.973
			c-3.036-12.863-4.819-19.303-5.351-19.322c-2.401-0.048-4.797,0.004-7.191,0.156c-0.578,0.047-2.21,6.561-4.9,19.545
			c-1.364,6.755-2.722,13.496-4.084,20.219c-0.122,0.396,0.167,0.586,0.879,0.57l8.188-0.181c0.222-0.005,0.416-0.158,0.589-0.458
			c0.607-2.633,1.09-4.947,1.446-6.945c0.083-0.233,0.28-0.354,0.592-0.36l2.594-0.058c0.443-0.011,0.691,0.099,0.74,0.328
			c0.25,1.139,0.612,2.504,1.088,4.1c0.669,2.111,1.203,3.165,1.602,3.154c1.244-0.025,2.71-0.043,4.395-0.048
			c1.687-0.037,2.839-0.062,3.462-0.076c0.442-0.009,0.641-0.111,0.592-0.308C238.313,654.516,236.764,647.744,235.196,640.973z
			 M227.863,647.182c-0.734,0.098-1.525,0.093-2.388-0.006c-0.857-0.104-1.25-0.274-1.174-0.514c0.267-2.646,0.534-5.25,0.805-7.819
			c0.485-3.925,0.932-5.897,1.343-5.905c0.322-0.009,1.203,4.527,2.623,13.619C229.076,646.878,228.672,647.086,227.863,647.182z"/>
	</g>
	<g>
		<path fill="#010101" stroke="#12100F" stroke-width="0.5559" stroke-miterlimit="10" d="M151.327,707.39l-6.351,0.138
			c-0.897-0.016-1.373-0.422-1.432-1.219c-0.192-3.324-0.339-9.266-0.44-17.832c-0.085-7.869-0.207-12.566-0.359-14.086
			c-0.006-0.348,0.005-0.676,0.04-0.99c-0.09-0.379-0.398-0.545-0.926-0.498c-3.539,0.178-5.737,0.223-6.595,0.139
			c-0.734-0.089-1.091,0.354-1.071,1.323c0.108,8.89,0.451,22.149,1.027,39.776c0.015,0.765,0.33,1.174,0.94,1.23
			c1.349,0.11,3.73,0.094,7.148-0.049c5.614-0.188,8.301-0.281,8.057-0.276c1.018-0.02,1.54-0.347,1.567-0.976
			c-0.016-2.621-0.055-4.545-0.12-5.767C152.798,707.676,152.302,707.369,151.327,707.39z"/>
		<path fill="#010101" stroke="#12100F" stroke-width="0.5559" stroke-miterlimit="10" d="M165.801,690.179
			c-2.691,0.015-4.909,0.038-6.658,0.075c-0.329,0.006-0.547,0.143-0.664,0.402c-0.077,0.176-0.116,0.369-0.112,0.586
			c0.233,8.926,0.385,17.035,0.456,24.326c0.014,0.646,0.429,0.983,1.243,1.01c3.301,0.08,5.438,0.035,6.415-0.138
			c0.648-0.099,0.967-0.408,0.956-0.925c-0.212-10.029-0.387-18.18-0.519-24.455C166.865,690.5,166.492,690.208,165.801,690.179z"/>
		<path fill="#010101" stroke="#12100F" stroke-width="0.5559" stroke-miterlimit="10" d="M190.082,695.953
			c-0.954-1.078-2.028-1.852-3.22-2.313c1.667-0.89,2.752-1.892,3.268-3.001c0.376-0.833,0.563-2.151,0.562-3.954l-0.049-4.857
			c-0.004-1.801-0.803-3.365-2.403-4.691c-1.6-1.322-3.473-1.964-5.614-1.92l-10.069,0.215c-0.214,0.004-0.319,0.189-0.31,0.555
			l0.773,36.46c0.009,0.456,0.193,0.684,0.553,0.675l5.157-0.108c4.476-0.095,7.656-0.47,9.54-1.12
			c2.455-0.814,3.661-2.307,3.615-4.477l-0.165-7.739C191.691,698.396,191.147,697.152,190.082,695.953z M179.475,689.9
			c-0.086-4.058-0.165-6.853-0.231-8.379c-0.007-0.275,0.098-0.431,0.312-0.465c0.215-0.033,0.625-0.043,1.235-0.024
			c1.11-0.026,1.852,0.278,2.224,0.914c0.26,0.421,0.383,1.151,0.367,2.19l-0.019,4.17c-0.019,0.704-0.428,1.255-1.227,1.653
			c-0.797,0.398-1.554,0.576-2.272,0.528C179.614,690.495,179.483,690.298,179.475,689.9z M181.392,706.814l-0.752,0.016
			c-0.395,0.009-0.595-0.185-0.603-0.582l-0.173-8.199c-0.007-0.336,0.113-0.506,0.363-0.512c2.4-0.052,3.638,0.794,3.71,2.534
			l0.11,2.702C184.138,705.428,183.254,706.775,181.392,706.814z"/>
		<path fill="#010101" stroke="#12100F" stroke-width="0.5559" stroke-miterlimit="10" d="M218.355,706.523
			c-0.117-5.477-1.149-8.906-3.091-10.286c-0.869-0.64-1.69-1.058-2.471-1.247c-0.328-0.098-0.491-0.182-0.493-0.251
			c0-0.104,0.158-0.214,0.482-0.324c1.009-0.331,1.913-0.94,2.711-1.825c1.153-1.236,1.712-2.707,1.675-4.404l-0.154-10.248
			c-0.035-1.663-1.026-2.979-2.974-3.941c-1.778-0.865-3.939-1.27-6.479-1.217c-3.891,0.118-6.963,0.2-9.215,0.248
			c-0.738,0.016-1.099,0.336-1.085,0.961l0.851,40.04c0.019,0.973,0.274,1.469,0.765,1.495c1.996,0.094,4.091,0.017,6.287-0.24
			c0.446-0.044,0.66-0.516,0.641-1.42c-0.047-4.131-0.129-8.922-0.246-14.369c-0.012-0.658,0.122-1.045,0.406-1.158
			c0.202-0.072,0.445-0.076,0.732-0.013c2.157-0.046,3.292,2.552,3.403,7.793c0.063,2.882,0.219,5.499,0.473,7.855
			c0.101,0.937,0.375,1.399,0.823,1.39c3.991,0.019,6.373-0.016,7.144-0.101c0.61-0.048,0.805-0.45,0.586-1.207
			C218.684,712.535,218.429,710.027,218.355,706.523z M209.078,689.678c-0.311,0.771-0.913,1.166-1.807,1.184
			c-0.285,0.041-0.529,0.045-0.733,0.016c-0.571-0.023-0.867-0.517-0.888-1.486l-0.194-9.121c-0.011-0.586,0.167-0.885,0.534-0.893
			c0.2-0.006,0.505-0.045,0.912-0.125c1.789-0.141,2.707,0.934,2.755,3.225C209.735,686.156,209.542,688.557,209.078,689.678z"/>
		<path fill="#010101" stroke="#12100F" stroke-width="0.5559" stroke-miterlimit="10" d="M245.403,709.832
			c-0.008-0.508-0.381-0.75-1.109-0.736c-3.244,0.068-5.752,0.121-7.533,0.16c-0.823-0.059-1.238-0.34-1.25-0.84
			c-0.233-4.503-0.252-7.564-0.057-9.188c0.077-0.577,0.344-0.873,0.802-0.882l6.16-0.132c0.503-0.012,0.749-0.287,0.739-0.834
			c-0.009-0.39,0.009-1.693,0.054-3.914c0.05-1.908,0.044-3.215-0.014-3.912c-0.055-0.467-0.377-0.693-0.966-0.682
			c-3.26,0.15-5.361,0.173-6.314,0.074c-0.546-0.063-0.822-0.311-0.829-0.74c-0.071-1.088-0.106-2.722-0.107-4.902
			c-0.008-2.568-0.015-3.953-0.019-4.147c-0.006-0.429,0.323-0.65,1.003-0.663c3.4-0.074,6.006-0.129,7.819-0.167
			c0.498-0.011,0.744-0.257,0.734-0.745c-0.01-0.486-0.016-1.645-0.005-3.476c-0.032-1.476-0.055-2.527-0.068-3.152
			c-0.011-0.466-0.382-0.692-1.112-0.677c-7.85,0.088-13.536,0.19-17.046,0.301c-0.504,0.013-0.749,0.232-0.741,0.662l0.967,45.591
			c0.017,0.701,0.274,1.063,0.781,1.095c5.181,0.24,10.931,0.158,17.245-0.252c0.734-0.053,1.095-0.314,1.084-0.779
			C245.541,715.338,245.473,712.982,245.403,709.832z"/>
		<circle fill="#010101" stroke="#12100F" stroke-width="0.5559" stroke-miterlimit="10" cx="162.634" cy="683.862" r="4.33"/>
	</g>
	<g>
		<path fill="#010101" d="M266.558,489.265c-10.158-24.2-41.023-34.55-64.429-23.697c-2.891,1.34-0.378,5.599,2.494,4.268
			c20.255-9.391,48.32-0.338,57.169,20.743C263.007,493.471,267.791,492.202,266.558,489.265z"/>
		<path fill="#010101" d="M209.023,478.368c-2.608,1.087-1.465,5.393,1.182,4.289c14.568-6.075,31.422,0.202,39.988,13.151
			c1.576,2.381,5.429,0.155,3.841-2.244C244.471,479.107,225.46,471.514,209.023,478.368z"/>
		<path fill="#010101" d="M230.49,490.949c-5.3-1.955-11.316-2.08-16.493,0.27c-2.174,0.986-0.288,4.18,1.871,3.199
			c4.144-1.88,8.87-1.427,13.094-0.082c3.687,1.176,7.71,3.48,9.471,7.074c1.052,2.146,4.248,0.268,3.2-1.871
			C239.505,495.191,234.859,492.56,230.49,490.949z"/>
		<path fill="#010101" d="M219.066,501.261c-1.812,0.584-1.037,3.448,0.789,2.858c2.843-0.918,5.839,0.125,7.807,2.301
			c1.287,1.422,3.377-0.682,2.098-2.097C227.12,501.408,222.854,500.037,219.066,501.261z"/>
	</g>
	<g>
		<circle fill="#010101" cx="219.922" cy="516.813" r="1.036"/>
		<path fill="#010101" d="M226.217,519.759c0.707-0.118,1.467-0.634,3.434-1.15c-2.268-1.206-3.401-2.407-5.316-4.056
			c-2.864-2.467-6.762-2.372-9.234-0.318c-1.919,1.592-2.795,3.85-3.956,5.932c-1.615,2.898-2.295,6.232-3.674,9.248
			c-0.91,1.993-2.451,3.526-3.584,5.369c-0.676,1.1-2.015,1.702-3.269,1.949c-2.276,0.447-4.522,1.278-6.921,0.787
			c-0.347-0.07-0.73,0.056-1.092,0.113c-2.585,0.41-5.162,0.883-7.757,1.223c-2.923,0.385-5.664,1.523-8.51,2.102
			c-5.571,1.133-9.666,4.964-14.333,7.736c-1.608,0.953-3.334,1.549-4.976,2.373c-0.778,0.393-1.366-0.033-1.669-0.788
			c-0.43-1.066-0.818-2.155-1.138-3.261c-0.609-2.107-1.725-3.811-3.403-5.166c-1.428-1.154-2.761-2.434-4.17-3.609
			c-0.464-0.386-1.106-1.045-1.375,0.213c-1.82,0.053-1.316,2.732-3.048,2.939c-0.355,0.042-0.301,0.537-0.208,0.873
			c0.729,2.633,0.806,5.412,1.79,7.99c0.208,0.547,0.451,1.04,0.768,1.523c0.745,1.141,1.347,2.383,1.092,3.787
			c-0.503,2.768,0.695,4.899,2.38,6.795c0.66,0.743,0.765,1.257,0.328,2.123c-0.662,1.313-1.383,2.582-2.175,3.809
			c-0.359,0.553-0.708,1.115-1.002,1.707c-0.744,1.499-0.609,3.174,0.3,4.189c0.809,0.904,2.719,1.271,4.005,0.538
			c2.988-1.706,6.164-1.441,9.359-0.979c0.597,0.088,1.382,0.398,1.601,0.996c0.26,0.703-0.605,0.94-0.969,1.393
			c-1.702,2.113-3.885,3.327-6.449,4.007c-1.132,0.302-2.068,1.093-2.51,2.417c-1.249,3.738-2.579,7.445-3.876,11.166
			c-0.88,2.521-2.02,4.912-3.222,7.272c-0.293,0.575-0.709,0.668-1.265,0.526c-0.654-0.164-0.927,0.163-0.669,0.773
			c0.582,1.377-0.131,2.52-0.336,3.791c-0.294,1.818-1.13,3.547-0.904,5.464c0.032,0.286,0.096,0.576,0.083,0.86
			c-0.059,1.279-0.007,2.393,1.738,1.799c0.181-0.062,0.495,0.214,0.721,0.375c0.748,0.532,1.299,0.084,1.853-0.355
			c0.624-0.496,0.644-1.197,0.299-1.811c-0.471-0.841-0.551-1.608-0.08-2.432c0.044-0.08,0.068-0.182,0.074-0.275
			c0.284-4.927,2.822-9.076,4.137-13.648c0.315-1.098,0.829-2.127,1.169-3.217c1.234-3.951,3.492-7.219,6.328-9.998
			c1.728-1.695,3.822-2.902,6.297-3.248c2.636-0.369,5.253-0.868,7.876-1.309c1.629-0.539,3.304-0.756,4.863-1.557
			c0.801-0.412,1.743-0.598,2.668-0.141c0.203,0.102,0.548,0.137,0.432,0.424c-0.622,1.561,0.208,1.197,1.075,0.973
			c0.964-0.249,1.486,0.236,1.575,1.268c0.25,2.985,0.308,5.975-0.578,8.834c-0.848,2.742,0.159,4.736,2.047,6.529
			c2.5,2.374,5.081,4.67,6.953,7.671c0.225,0.358,0.563,0.772,0.929,0.813c2.782,3.141,5.055,6.682,7.481,10.102
			c1.027,1.449,3.439,0.064,2.399-1.402c-2.763-3.897-5.354-7.943-8.632-11.438c-0.354-1.161-1.294-1.91-2.02-2.791
			c-0.893-1.084-1.973-1.988-2.982-2.955c-1.627-1.556-2.644-3.582-2.689-5.959c-0.042-2.303,0.191-4.58,0.789-6.797
			c0.407-1.514,1.541-2.572,2.418-3.711c5.542-7.193,11.013-14.449,16.537-21.657c2.002-2.612,3.954-5.224,5.592-8.101
			c0.784-1.373,1.236-2.887,1.717-4.365c0.77-2.357,2.604-4.159,2.968-6.707c0.181-1.27,0.656-2.507,0.046-3.805
			c-0.113-0.236-0.125-0.596-0.042-0.846c0.945-2.848,2.225-5.41,4.889-6.97c2.608-1.526,4.71-1.054,7.595-1.157
			C227.215,524.537,225.842,519.621,226.217,519.759z M220.296,519.471c-1.228,0.207-2.391-0.617-2.598-1.841
			c-0.206-1.224,0.625-2.382,1.853-2.59c1.229-0.206,2.39,0.618,2.595,1.841C222.352,518.104,221.523,519.264,220.296,519.471z"/>
		<path fill="#010101" d="M242.996,524.943c-0.722-0.635-1.629-0.865-1.904-1.074c-0.468-0.356-7.395-3.094-9.868-4.361
			c-0.096-0.05-0.787-0.26-0.787-0.26l-3.103,1.303l0.69,3.381c0,0,1.806-0.191,2.546-0.016c3.044,0.725,6.1,1.823,9.229,2.605
			c0.858,0.215,1.89,0.166,2.707,0.064c0.819-0.104,1.42-0.26,1.42-0.26S243.5,525.387,242.996,524.943z"/>
	</g>
	<g>
		<path fill="#010101" d="M198.525,734.758c0,0.261-0.081,0.393-0.245,0.393c-0.262,0-0.668,0.006-1.217,0.019
			c-0.476,0.013-0.833,0.017-1.07,0.017c-0.238,0-0.362-0.059-0.376-0.18c-0.012-0.117-0.019-0.875-0.019-2.27
			c0-0.239,0.07-0.361,0.208-0.361c0.137,0,0.486-0.007,1.05-0.025c0.562-0.017,1.013-0.026,1.35-0.026
			c0.2,0,0.301,0.061,0.301,0.181C198.519,732.836,198.525,733.589,198.525,734.758z"/>
		<path fill="#010101" d="M205.503,732.873c0,2.002-1,3.004-3.001,3.004c-1.038,0-1.781-0.25-2.233-0.75
			c-0.424-0.467-0.636-1.217-0.636-2.254v-8.282c0-1.301,0.274-2.226,0.825-2.772c0.45-0.455,1.131-0.68,2.044-0.68
			c0.977,0,1.688,0.195,2.14,0.59c0.573,0.5,0.861,1.383,0.861,2.646V732.873z M203.122,732.068v-7.247
			c0-0.703-0.175-1.054-0.526-1.054c-0.388,0-0.58,0.357-0.58,1.072v7.245c0,0.394,0.044,0.642,0.131,0.742
			c0.087,0.102,0.237,0.153,0.449,0.153C202.946,732.98,203.122,732.676,203.122,732.068z"/>
		<path fill="#010101" d="M213.935,735.686c0.062,0.264,0,0.402-0.188,0.413c-0.239,0.024-0.97,0.017-2.194-0.019
			c-0.139,0-0.219-0.16-0.243-0.482c-0.064-0.811-0.095-1.711-0.095-2.701c0-1.799-0.332-2.701-0.994-2.701
			c-0.088-0.023-0.164-0.023-0.227,0c-0.087,0.035-0.131,0.168-0.131,0.395c0,1.871-0.005,3.518-0.018,4.936
			c0,0.313-0.069,0.471-0.205,0.484c-0.676,0.07-1.32,0.083-1.933,0.035c-0.151-0.012-0.226-0.187-0.226-0.518V721.77
			c0-0.214,0.113-0.322,0.341-0.322c0.692,0,1.636-0.004,2.832-0.018c0.779,0,1.439,0.155,1.98,0.464
			c0.592,0.347,0.888,0.805,0.888,1.378l-0.02,3.52c0,0.582-0.181,1.084-0.542,1.499c-0.251,0.3-0.532,0.502-0.844,0.608
			c-0.101,0.035-0.15,0.071-0.15,0.107c0,0.023,0.05,0.053,0.15,0.09c0.237,0.07,0.487,0.219,0.75,0.443
			c0.587,0.49,0.881,1.676,0.881,3.559C213.747,734.301,213.81,735.162,213.935,735.686z M211.232,724.775
			c0-0.789-0.273-1.164-0.824-1.128c-0.126,0.025-0.219,0.035-0.282,0.035c-0.111,0-0.168,0.101-0.168,0.304v3.135
			c0,0.332,0.087,0.504,0.263,0.517c0.061,0.012,0.137,0.012,0.224,0c0.276,0,0.463-0.132,0.564-0.394
			C211.157,726.862,211.232,726.039,211.232,724.775z"/>
		<path fill="#010101" d="M222.466,735.574c0,0.32-0.062,0.48-0.188,0.48h-0.524c-0.114,0-0.195-0.076-0.243-0.228
			c-0.052-0.151-0.132-0.355-0.246-0.614c-0.213,0.563-0.913,0.842-2.101,0.842c-1.286,0-2.194-0.308-2.719-0.926
			c-0.462-0.545-0.688-1.447-0.675-2.707l0.038-7.261c0.012-1.473,0.269-2.468,0.77-2.991c0.45-0.462,1.256-0.693,2.419-0.693
			c1.389,0,2.331,0.333,2.832,0.998c0.376,0.475,0.568,1.277,0.582,2.407c0.038,1.06,0.05,1.838,0.038,2.337
			c0,0.202-0.082,0.303-0.243,0.303c-0.439,0.012-1.12,0.007-2.046-0.018c-0.149,0-0.231-0.089-0.245-0.268
			c-0.023-0.699-0.049-1.394-0.073-2.082c-0.088-0.949-0.319-1.424-0.695-1.424c-0.462,0-0.694,0.471-0.694,1.41v7.518
			c0,0.19,0.063,0.418,0.188,0.678c0.149,0.321,0.324,0.482,0.523,0.482c0.502,0,0.75-0.643,0.75-1.932v-0.912
			c0-0.155-0.049-0.227-0.149-0.214h-0.45c-0.113,0-0.169-0.056-0.169-0.161v-1.735c0-0.179,0.094-0.269,0.282-0.269
			c0.663,0,1.582,0.006,2.757,0.018c0.188,0,0.281,0.102,0.281,0.305V735.574z"/>
		<path fill="#010101" d="M227.22,735.334c0,0.264-0.082,0.395-0.246,0.395c-0.261,0-0.667,0.004-1.217,0.018
			c-0.477,0.012-0.832,0.018-1.07,0.018c-0.238,0-0.362-0.061-0.376-0.18c-0.012-0.118-0.018-0.877-0.018-2.271
			c0-0.238,0.069-0.357,0.206-0.357c0.138,0,0.488-0.009,1.053-0.026c0.561-0.019,1.012-0.026,1.349-0.026
			c0.2,0,0.301,0.059,0.301,0.179C227.213,733.414,227.22,734.166,227.22,735.334z"/>
		<path fill="#010101" d="M236.609,736.314c0.012,0.072-0.044,0.106-0.168,0.106c-0.175,0-0.501,0-0.977,0
			c-0.475-0.011-0.889-0.017-1.237-0.017c-0.114,0-0.257-0.387-0.431-1.164c-0.125-0.582-0.218-1.084-0.281-1.501
			c-0.012-0.085-0.083-0.126-0.207-0.126h-0.733c-0.087,0-0.142,0.041-0.167,0.127c-0.113,0.725-0.262,1.564-0.45,2.52
			c-0.05,0.106-0.108,0.161-0.168,0.161h-2.308c-0.201,0-0.28-0.071-0.243-0.214c0.424-2.439,0.85-4.884,1.275-7.334
			c0.838-4.711,1.336-7.074,1.5-7.084c0.675-0.036,1.35-0.036,2.026,0c0.149,0.01,0.614,2.373,1.39,7.084
			C235.827,731.353,236.221,733.834,236.609,736.314z M233.345,731.358c-0.188-1.359-0.307-2.04-0.357-2.04
			c-0.063,0-0.137,0.294-0.226,0.877c-0.048,0.383-0.098,0.771-0.149,1.163c-0.012,0.037,0.047,0.063,0.179,0.081
			c0.132,0.019,0.252,0.021,0.366,0.01C233.283,731.438,233.345,731.406,233.345,731.358z"/>
		<path fill="#010101" d="M245.153,735.34c0.063,0.26,0,0.398-0.188,0.41c-0.237,0.023-0.969,0.018-2.194-0.019
			c-0.137,0-0.219-0.16-0.244-0.483c-0.062-0.811-0.094-1.711-0.094-2.7c0-1.802-0.332-2.702-0.994-2.702
			c-0.087-0.022-0.162-0.022-0.224,0c-0.089,0.035-0.131,0.168-0.131,0.395c0,1.871-0.008,3.518-0.02,4.936
			c0,0.311-0.07,0.472-0.206,0.483c-0.676,0.072-1.319,0.085-1.933,0.035c-0.149-0.01-0.224-0.184-0.224-0.517V721.42
			c0-0.215,0.113-0.32,0.339-0.32c0.692,0,1.636-0.007,2.832-0.02c0.78,0,1.44,0.155,1.981,0.465
			c0.592,0.345,0.887,0.805,0.887,1.376l-0.018,3.521c0,0.584-0.183,1.084-0.544,1.5c-0.25,0.299-0.532,0.501-0.844,0.608
			c-0.101,0.035-0.149,0.071-0.149,0.106c0,0.024,0.049,0.054,0.149,0.09c0.237,0.072,0.488,0.221,0.751,0.446
			c0.587,0.487,0.881,1.673,0.881,3.556C244.966,733.951,245.028,734.814,245.153,735.34z M242.452,724.424
			c0-0.785-0.274-1.161-0.825-1.125c-0.126,0.023-0.22,0.036-0.282,0.036c-0.112,0-0.168,0.101-0.168,0.303v3.134
			c0,0.333,0.086,0.506,0.262,0.516c0.062,0.012,0.138,0.012,0.225,0c0.275,0,0.463-0.13,0.563-0.392
			C242.377,726.514,242.452,725.69,242.452,724.424z"/>
	</g>
	
		<rect x="153.696" y="696.054" transform="matrix(0.0356 0.9994 -0.9994 0.0356 869.242 491.9007)" fill="#FFFFFF" width="52.111" height="0.556"/>
	
		<rect x="189.226" y="683.585" transform="matrix(0.0424 0.9991 -0.9991 0.0424 880.0332 449.5367)" fill="#FFFFFF" width="32.553" height="0.557"/>
	<rect x="226.465" y="620.279" fill="#FFFFFF" width="0.556" height="40.621"/>
	
		<rect x="113.641" y="645.009" transform="matrix(0.08 0.9968 -0.9968 0.08 770.8483 455.3837)" fill="#FFFFFF" width="50.173" height="0.556"/>
	<rect x="209.729" y="720.909" fill="#FFFFFF" width="0.274" height="9.387"/>
	<rect x="202.432" y="720.077" fill="#FFFFFF" width="0.274" height="17.444"/>
	<rect x="232.782" y="720.385" fill="#FFFFFF" width="0.273" height="15.67"/>
	<rect x="240.977" y="718.84" fill="#FFFFFF" width="0.231" height="11.032"/>
	
		<rect x="217.37" y="513.311" transform="matrix(0.0018 1 -1 0.0018 732.7673 293.148)" fill="#FFFFFF" width="4.354" height="0.61"/>
</g>
<g>
	
		<rect x="335.66" y="432.972" fill="none" stroke="#231F20" stroke-width="2.2234" stroke-miterlimit="10" width="176.761" height="340.157"/>
	<g>
		<path fill="#010101" stroke="#121112" stroke-width="0.5559" stroke-miterlimit="10" d="M385.691,635.512
			c-0.328-3.908-1.271-7.016-2.831-9.33c-2.03-2.947-4.872-4.25-8.529-3.909c-4.814,0.369-7.9,0.645-9.248,0.827
			c-0.492,0.076-0.715,0.379-0.672,0.906l3.473,41.479c0.049,0.599,0.363,0.873,0.943,0.824l8.291-0.693
			c7.346-0.617,10.603-5.865,9.774-15.752L385.691,635.512z M378.065,655.047c-0.848,2.141-1.797,3.236-2.843,3.286
			c-0.304,0.026-0.478-0.239-0.523-0.797c-0.372-4.442-0.864-10.296-1.472-17.562c-0.611-7.299-0.922-11.02-0.935-11.169
			c-0.044-0.521,0.103-0.79,0.449-0.819c1.114-0.096,2.212,0.514,3.294,1.821c1.082,1.309,1.688,2.741,1.82,4.296l1.162,13.895
			C379.233,650.553,378.915,652.904,378.065,655.047z"/>
		<path fill="#010101" stroke="#121112" stroke-width="0.5559" stroke-miterlimit="10" d="M405.832,655.598
			c-2.459,0.049-4.362,0.085-5.713,0.113c-0.621-0.045-0.939-0.26-0.946-0.639c-0.173-3.418-0.185-5.74-0.037-6.969
			c0.063-0.44,0.267-0.664,0.611-0.67l4.676-0.092c0.381-0.009,0.566-0.219,0.56-0.633c-0.007-0.293,0.007-1.283,0.045-2.969
			c0.039-1.446,0.038-2.437-0.006-2.969c-0.043-0.354-0.286-0.525-0.734-0.517c-2.471,0.108-4.066,0.126-4.787,0.05
			c-0.416-0.051-0.623-0.236-0.631-0.563c-0.051-0.827-0.076-2.065-0.074-3.719c-0.002-1.95-0.006-2.998-0.009-3.146
			c-0.008-0.324,0.247-0.492,0.761-0.503c2.578-0.05,4.558-0.089,5.932-0.114c0.379-0.01,0.564-0.197,0.557-0.566
			c-0.008-0.371-0.006-1.25,0-2.639c-0.023-1.12-0.039-1.919-0.049-2.391c-0.007-0.353-0.288-0.525-0.84-0.516
			c-5.957,0.059-10.27,0.129-12.934,0.213c-0.381,0.006-0.569,0.176-0.564,0.498l0.687,34.588c0.01,0.531,0.206,0.81,0.592,0.83
			c3.931,0.187,8.294,0.131,13.085-0.17c0.555-0.042,0.828-0.24,0.822-0.593c-0.059-1.179-0.111-2.966-0.158-5.358
			C406.668,655.773,406.387,655.588,405.832,655.598z"/>
		<path fill="#010101" stroke="#121112" stroke-width="0.5559" stroke-miterlimit="10" d="M425.771,655.344l-5.403,0.087
			c-0.761-0.019-1.165-0.367-1.211-1.046c-0.147-2.827-0.249-7.881-0.296-15.167c-0.037-6.692-0.117-10.687-0.241-11.981
			c-0.004-0.297,0.007-0.576,0.039-0.842c-0.076-0.322-0.34-0.467-0.785-0.432c-3.013,0.139-4.883,0.17-5.613,0.092
			c-0.624-0.08-0.928,0.296-0.914,1.121c0.05,7.561,0.282,18.838,0.696,33.833c0.011,0.65,0.274,1.001,0.794,1.054
			c1.146,0.1,3.172,0.096,6.08-0.01c4.775-0.137,7.063-0.201,6.855-0.197c0.864-0.016,1.31-0.291,1.336-0.826
			c-0.002-2.229-0.029-3.864-0.078-4.902C427.021,655.592,426.6,655.33,425.771,655.344z"/>
		<path fill="#010101" stroke="#121112" stroke-width="0.5559" stroke-miterlimit="10" d="M444.129,625.914
			c-6.387,0.502-11.72,0.948-15.999,1.339c-0.483,0.04-0.761,0.448-0.834,1.224c-0.091,0.57-0.061,1.354,0.093,2.348
			c0.196,1.525,0.283,2.127,0.256,1.802c0.031,0.382,0.324,0.567,0.879,0.548l3.832-0.32c0.412-0.034,0.636,0.154,0.671,0.566
			l2.439,28.509c0.038,0.472,0.286,0.703,0.735,0.696c2.708-0.049,4.675-0.201,5.906-0.451c0.377-0.062,0.545-0.328,0.505-0.799
			l-2.488-28.503c-0.038-0.443,0.306-0.694,1.031-0.756c0.481-0.038,1.103-0.091,1.862-0.155c0.797-0.037,1.316-0.064,1.557-0.086
			c0.586-0.049,0.862-0.278,0.828-0.691c-0.066-1.211-0.211-2.723-0.432-4.541C444.891,626.113,444.611,625.872,444.129,625.914z"/>
		<path fill="#010101" stroke="#121112" stroke-width="0.5559" stroke-miterlimit="10" d="M470.174,640.973
			c-3.036-12.863-4.82-19.303-5.352-19.322c-2.4-0.047-4.797,0.004-7.191,0.156c-0.578,0.047-2.21,6.561-4.9,19.545
			c-1.363,6.756-2.722,13.496-4.084,20.219c-0.121,0.396,0.168,0.586,0.879,0.571l8.188-0.181c0.222-0.006,0.416-0.158,0.589-0.459
			c0.607-2.633,1.09-4.947,1.447-6.945c0.083-0.232,0.279-0.354,0.592-0.359l2.594-0.059c0.443-0.01,0.691,0.1,0.74,0.328
			c0.25,1.14,0.611,2.505,1.088,4.1c0.67,2.111,1.203,3.166,1.602,3.154c1.244-0.025,2.71-0.043,4.395-0.047
			c1.688-0.037,2.84-0.063,3.463-0.076c0.441-0.01,0.641-0.111,0.592-0.309C473.29,654.517,471.741,647.744,470.174,640.973z
			 M462.841,647.182c-0.734,0.098-1.525,0.094-2.388-0.006c-0.857-0.104-1.25-0.273-1.175-0.514c0.267-2.646,0.534-5.25,0.806-7.818
			c0.484-3.926,0.932-5.898,1.342-5.906c0.322-0.008,1.203,4.528,2.623,13.619C464.053,646.879,463.649,647.086,462.841,647.182z"/>
	</g>
	<g>
		<path fill="#010101" stroke="#12100F" stroke-width="0.5559" stroke-miterlimit="10" d="M386.305,707.391l-6.351,0.137
			c-0.898-0.016-1.373-0.422-1.432-1.219c-0.193-3.324-0.34-9.266-0.44-17.831c-0.085-7.87-0.206-12.566-0.358-14.087
			c-0.006-0.348,0.004-0.676,0.039-0.989c-0.09-0.38-0.398-0.546-0.926-0.499c-3.539,0.178-5.738,0.224-6.596,0.139
			c-0.734-0.088-1.09,0.354-1.07,1.324c0.107,8.889,0.451,22.148,1.027,39.775c0.016,0.766,0.33,1.174,0.94,1.23
			c1.349,0.111,3.73,0.094,7.148-0.049c5.614-0.188,8.301-0.281,8.057-0.275c1.018-0.02,1.539-0.348,1.566-0.977
			c-0.016-2.621-0.055-4.544-0.119-5.766C387.775,707.676,387.279,707.37,386.305,707.391z"/>
		<path fill="#010101" stroke="#12100F" stroke-width="0.5559" stroke-miterlimit="10" d="M400.778,690.18
			c-2.69,0.014-4.909,0.038-6.657,0.074c-0.329,0.007-0.547,0.143-0.664,0.403c-0.078,0.175-0.117,0.368-0.113,0.585
			c0.234,8.927,0.385,17.035,0.457,24.326c0.014,0.646,0.428,0.984,1.242,1.01c3.302,0.08,5.439,0.035,6.415-0.137
			c0.647-0.1,0.968-0.408,0.956-0.926c-0.212-10.028-0.387-18.18-0.52-24.455C401.842,690.501,401.47,690.209,400.778,690.18z"/>
		<path fill="#010101" stroke="#12100F" stroke-width="0.5559" stroke-miterlimit="10" d="M425.059,695.953
			c-0.953-1.078-2.027-1.852-3.219-2.313c1.666-0.889,2.752-1.891,3.268-3c0.376-0.834,0.563-2.152,0.562-3.954l-0.05-4.857
			c-0.004-1.802-0.803-3.366-2.402-4.692c-1.6-1.322-3.473-1.963-5.613-1.919l-10.069,0.214c-0.214,0.005-0.319,0.189-0.31,0.556
			l0.772,36.46c0.009,0.455,0.193,0.684,0.554,0.674l5.156-0.107c4.477-0.096,7.656-0.47,9.54-1.121
			c2.454-0.813,3.661-2.307,3.615-4.476l-0.165-7.739C426.669,698.396,426.125,697.152,425.059,695.953z M414.452,689.9
			c-0.086-4.057-0.165-6.852-0.231-8.379c-0.007-0.274,0.098-0.43,0.313-0.465c0.215-0.033,0.625-0.043,1.234-0.023
			c1.109-0.026,1.852,0.278,2.224,0.914c0.26,0.42,0.383,1.151,0.367,2.189l-0.019,4.171c-0.02,0.704-0.429,1.255-1.228,1.653
			c-0.797,0.398-1.554,0.576-2.272,0.527C414.592,690.496,414.461,690.299,414.452,689.9z M416.369,706.814l-0.752,0.016
			c-0.395,0.01-0.595-0.184-0.603-0.582l-0.173-8.199c-0.008-0.335,0.113-0.506,0.362-0.512c2.399-0.051,3.638,0.795,3.71,2.535
			l0.109,2.701C419.115,705.428,418.231,706.776,416.369,706.814z"/>
		<path fill="#010101" stroke="#12100F" stroke-width="0.5559" stroke-miterlimit="10" d="M453.333,706.524
			c-0.116-5.478-1.149-8.906-3.091-10.286c-0.869-0.64-1.69-1.058-2.471-1.248c-0.328-0.098-0.491-0.182-0.493-0.25
			c0-0.105,0.158-0.214,0.482-0.324c1.009-0.331,1.913-0.94,2.711-1.825c1.153-1.237,1.712-2.708,1.675-4.405l-0.154-10.248
			c-0.035-1.662-1.025-2.978-2.974-3.941c-1.778-0.864-3.939-1.27-6.479-1.217c-3.891,0.119-6.963,0.201-9.215,0.248
			c-0.738,0.017-1.1,0.336-1.086,0.961l0.851,40.041c0.019,0.973,0.274,1.469,0.765,1.494c1.996,0.095,4.092,0.018,6.287-0.24
			c0.446-0.043,0.66-0.516,0.641-1.42c-0.047-4.131-0.129-8.921-0.246-14.369c-0.012-0.658,0.122-1.045,0.406-1.158
			c0.201-0.071,0.445-0.076,0.731-0.012c2.157-0.047,3.292,2.552,3.403,7.793c0.063,2.881,0.219,5.499,0.473,7.855
			c0.102,0.936,0.375,1.398,0.824,1.39c3.99,0.019,6.373-0.017,7.144-0.101c0.61-0.048,0.805-0.45,0.586-1.207
			C453.662,712.536,453.406,710.027,453.333,706.524z M444.056,689.679c-0.311,0.771-0.913,1.166-1.808,1.184
			c-0.285,0.04-0.528,0.044-0.732,0.015c-0.571-0.023-0.867-0.516-0.888-1.485l-0.194-9.122c-0.011-0.586,0.167-0.885,0.534-0.892
			c0.2-0.006,0.505-0.045,0.911-0.126c1.789-0.141,2.707,0.934,2.756,3.226C444.713,686.156,444.52,688.557,444.056,689.679z"/>
		<path fill="#010101" stroke="#12100F" stroke-width="0.5559" stroke-miterlimit="10" d="M480.381,709.832
			c-0.009-0.507-0.381-0.75-1.109-0.736c-3.244,0.068-5.752,0.121-7.533,0.16c-0.823-0.059-1.238-0.339-1.25-0.84
			c-0.232-4.502-0.252-7.564-0.057-9.188c0.076-0.576,0.344-0.873,0.802-0.881l6.159-0.133c0.504-0.012,0.75-0.287,0.739-0.834
			c-0.009-0.389,0.009-1.693,0.054-3.914c0.051-1.907,0.044-3.214-0.014-3.912c-0.055-0.467-0.378-0.693-0.967-0.682
			c-3.26,0.15-5.361,0.174-6.314,0.075c-0.546-0.063-0.822-0.312-0.828-0.74c-0.071-1.089-0.106-2.722-0.107-4.903
			c-0.008-2.568-0.015-3.953-0.019-4.146c-0.007-0.429,0.323-0.65,1.003-0.664c3.4-0.074,6.006-0.129,7.818-0.166
			c0.498-0.012,0.744-0.258,0.734-0.746c-0.01-0.486-0.016-1.645-0.006-3.475c-0.031-1.477-0.055-2.527-0.067-3.152
			c-0.011-0.467-0.382-0.692-1.112-0.678c-7.85,0.089-13.535,0.191-17.045,0.302c-0.504,0.013-0.75,0.231-0.741,0.661l0.968,45.592
			c0.016,0.701,0.273,1.063,0.781,1.094c5.18,0.241,10.93,0.159,17.244-0.251c0.734-0.054,1.096-0.315,1.085-0.78
			C480.518,715.339,480.45,712.983,480.381,709.832z"/>
		<circle fill="#010101" stroke="#12100F" stroke-width="0.5559" stroke-miterlimit="10" cx="397.611" cy="683.862" r="4.33"/>
	</g>
	<g>
		<path fill="#010101" d="M501.535,489.266c-10.158-24.201-41.023-34.55-64.429-23.697c-2.891,1.34-0.378,5.598,2.493,4.268
			c20.256-9.391,48.32-0.338,57.17,20.742C497.984,493.472,502.769,492.203,501.535,489.266z"/>
		<path fill="#010101" d="M444,478.369c-2.607,1.087-1.465,5.393,1.183,4.289c14.567-6.076,31.422,0.201,39.988,13.151
			c1.576,2.381,5.429,0.155,3.841-2.245C479.449,479.108,460.438,471.514,444,478.369z"/>
		<path fill="#010101" d="M465.468,490.949c-5.3-1.955-11.316-2.079-16.493,0.27c-2.174,0.986-0.287,4.181,1.871,3.2
			c4.145-1.88,8.87-1.427,13.095-0.082c3.687,1.175,7.71,3.479,9.471,7.074c1.052,2.146,4.248,0.267,3.2-1.871
			C474.482,495.191,469.837,492.561,465.468,490.949z"/>
		<path fill="#010101" d="M454.043,501.262c-1.811,0.584-1.037,3.447,0.789,2.858c2.844-0.918,5.839,0.125,7.807,2.3
			c1.287,1.422,3.378-0.682,2.099-2.096C462.098,501.408,457.832,500.038,454.043,501.262z"/>
	</g>
	<g>
		<circle fill="#010101" cx="454.899" cy="516.814" r="1.036"/>
		<path fill="#010101" d="M461.194,519.76c0.706-0.119,1.468-0.635,3.435-1.15c-2.268-1.206-3.401-2.407-5.316-4.057
			c-2.864-2.467-6.762-2.371-9.234-0.318c-1.919,1.593-2.795,3.85-3.956,5.932c-1.615,2.898-2.295,6.232-3.674,9.249
			c-0.909,1.993-2.451,3.526-3.585,5.368c-0.676,1.101-2.015,1.703-3.269,1.95c-2.276,0.446-4.522,1.278-6.921,0.786
			c-0.348-0.07-0.73,0.057-1.092,0.113c-2.586,0.41-5.162,0.883-7.758,1.224c-2.924,0.385-5.664,1.522-8.51,2.101
			c-5.571,1.133-9.666,4.965-14.332,7.736c-1.609,0.954-3.335,1.549-4.977,2.374c-0.777,0.393-1.365-0.033-1.668-0.788
			c-0.431-1.066-0.818-2.156-1.139-3.261c-0.609-2.108-1.725-3.811-3.402-5.167c-1.428-1.153-2.761-2.433-4.171-3.609
			c-0.463-0.385-1.105-1.044-1.375,0.213c-1.82,0.054-1.316,2.732-3.047,2.939c-0.355,0.043-0.301,0.538-0.209,0.873
			c0.729,2.633,0.806,5.412,1.79,7.99c0.208,0.547,0.451,1.041,0.768,1.524c0.745,1.141,1.347,2.382,1.093,3.787
			c-0.504,2.768,0.694,4.899,2.38,6.795c0.659,0.743,0.765,1.257,0.327,2.122c-0.662,1.313-1.383,2.582-2.174,3.809
			c-0.359,0.553-0.709,1.116-1.002,1.708c-0.744,1.499-0.609,3.173,0.3,4.188c0.809,0.904,2.72,1.271,4.005,0.539
			c2.988-1.707,6.164-1.441,9.359-0.979c0.597,0.088,1.382,0.397,1.601,0.996c0.26,0.703-0.605,0.94-0.969,1.392
			c-1.701,2.114-3.885,3.328-6.449,4.008c-1.132,0.301-2.068,1.092-2.51,2.416c-1.249,3.738-2.579,7.445-3.876,11.166
			c-0.879,2.521-2.02,4.912-3.222,7.273c-0.293,0.574-0.71,0.668-1.265,0.525c-0.654-0.164-0.928,0.164-0.669,0.773
			c0.581,1.377-0.132,2.52-0.337,3.791c-0.293,1.819-1.129,3.547-0.904,5.465c0.033,0.285,0.096,0.576,0.084,0.859
			c-0.059,1.279-0.008,2.394,1.737,1.8c0.181-0.062,0.495,0.214,0.721,0.374c0.747,0.533,1.3,0.084,1.853-0.355
			c0.623-0.496,0.644-1.197,0.299-1.81c-0.471-0.841-0.551-1.608-0.08-2.432c0.045-0.081,0.068-0.183,0.074-0.275
			c0.283-4.927,2.822-9.077,4.137-13.649c0.314-1.098,0.829-2.127,1.169-3.216c1.234-3.951,3.492-7.219,6.328-9.999
			c1.729-1.694,3.822-2.902,6.297-3.248c2.637-0.369,5.254-0.867,7.877-1.309c1.629-0.539,3.304-0.755,4.863-1.557
			c0.801-0.412,1.742-0.598,2.668-0.141c0.202,0.102,0.547,0.137,0.432,0.424c-0.622,1.562,0.207,1.198,1.075,0.974
			c0.964-0.249,1.486,0.235,1.575,1.267c0.25,2.986,0.308,5.975-0.578,8.834c-0.848,2.742,0.159,4.736,2.047,6.529
			c2.5,2.375,5.081,4.67,6.953,7.672c0.225,0.357,0.563,0.772,0.93,0.813c2.781,3.14,5.055,6.681,7.48,10.102
			c1.027,1.448,3.439,0.063,2.399-1.403c-2.763-3.896-5.354-7.942-8.632-11.438c-0.354-1.16-1.295-1.91-2.02-2.791
			c-0.893-1.084-1.973-1.987-2.982-2.955c-1.627-1.555-2.645-3.581-2.689-5.958c-0.041-2.304,0.191-4.581,0.789-6.798
			c0.407-1.514,1.541-2.572,2.419-3.71c5.542-7.193,11.013-14.45,16.536-21.657c2.003-2.613,3.954-5.224,5.593-8.101
			c0.784-1.374,1.235-2.887,1.717-4.366c0.77-2.357,2.604-4.158,2.968-6.706c0.182-1.27,0.656-2.507,0.047-3.806
			c-0.113-0.236-0.125-0.596-0.043-0.845c0.945-2.849,2.225-5.41,4.889-6.97c2.608-1.527,4.711-1.055,7.596-1.158
			C462.192,524.537,460.82,519.621,461.194,519.76z M455.273,519.472c-1.228,0.206-2.391-0.618-2.598-1.841
			c-0.205-1.224,0.625-2.383,1.853-2.59c1.229-0.207,2.39,0.617,2.595,1.841C457.33,518.105,456.501,519.264,455.273,519.472z"/>
		<path fill="#010101" d="M477.974,524.944c-0.722-0.635-1.63-0.866-1.904-1.075c-0.468-0.355-7.395-3.094-9.868-4.361
			c-0.096-0.049-0.787-0.259-0.787-0.259l-3.104,1.302l0.691,3.381c0,0,1.805-0.191,2.546-0.016c3.044,0.725,6.1,1.824,9.229,2.605
			c0.857,0.216,1.89,0.167,2.707,0.064c0.818-0.104,1.42-0.26,1.42-0.26S478.477,525.387,477.974,524.944z"/>
	</g>
	<g>
		<path fill="#010101" d="M433.503,734.758c0,0.262-0.081,0.393-0.245,0.393c-0.262,0-0.668,0.006-1.217,0.02
			c-0.476,0.013-0.833,0.016-1.07,0.016c-0.238,0-0.362-0.059-0.376-0.179c-0.013-0.118-0.019-0.876-0.019-2.271
			c0-0.238,0.07-0.36,0.208-0.36s0.485-0.007,1.05-0.026c0.562-0.016,1.013-0.025,1.35-0.025c0.2,0,0.302,0.061,0.302,0.18
			C433.496,732.836,433.503,733.59,433.503,734.758z"/>
		<path fill="#010101" d="M440.48,732.873c0,2.002-1,3.004-3.001,3.004c-1.038,0-1.781-0.249-2.233-0.75
			c-0.424-0.467-0.635-1.217-0.635-2.254v-8.281c0-1.301,0.273-2.227,0.824-2.773c0.45-0.455,1.131-0.68,2.044-0.68
			c0.977,0,1.688,0.195,2.14,0.59c0.573,0.5,0.861,1.383,0.861,2.646V732.873z M438.1,732.068v-7.246
			c0-0.703-0.176-1.055-0.527-1.055c-0.387,0-0.58,0.357-0.58,1.072v7.246c0,0.393,0.045,0.641,0.131,0.742
			c0.088,0.102,0.238,0.152,0.449,0.152C437.924,732.98,438.1,732.676,438.1,732.068z"/>
		<path fill="#010101" d="M448.912,735.687c0.063,0.264,0,0.401-0.188,0.413c-0.238,0.023-0.97,0.017-2.194-0.019
			c-0.139,0-0.22-0.16-0.243-0.483c-0.064-0.811-0.095-1.711-0.095-2.701c0-1.799-0.331-2.701-0.994-2.701
			c-0.089-0.023-0.164-0.023-0.227,0c-0.087,0.036-0.132,0.168-0.132,0.395c0,1.871-0.005,3.518-0.018,4.936
			c0,0.313-0.068,0.472-0.205,0.484c-0.676,0.071-1.32,0.084-1.934,0.035c-0.15-0.012-0.225-0.186-0.225-0.518V721.77
			c0-0.213,0.112-0.321,0.34-0.321c0.692,0,1.637-0.005,2.832-0.018c0.779,0,1.439,0.155,1.98,0.464
			c0.593,0.346,0.889,0.805,0.889,1.377l-0.021,3.52c0,0.583-0.181,1.084-0.542,1.5c-0.252,0.299-0.533,0.502-0.845,0.607
			c-0.101,0.035-0.15,0.072-0.15,0.107c0,0.023,0.05,0.054,0.15,0.09c0.237,0.07,0.487,0.219,0.751,0.444
			c0.586,0.489,0.881,1.675,0.881,3.558C448.725,734.301,448.787,735.162,448.912,735.687z M446.209,724.775
			c0-0.788-0.272-1.163-0.824-1.127c-0.125,0.025-0.219,0.035-0.281,0.035c-0.111,0-0.168,0.1-0.168,0.303v3.135
			c0,0.333,0.088,0.504,0.263,0.518c0.062,0.012,0.137,0.012,0.224,0c0.276,0,0.463-0.132,0.564-0.395
			C446.135,726.863,446.209,726.039,446.209,724.775z"/>
		<path fill="#010101" d="M457.443,735.574c0,0.32-0.062,0.48-0.188,0.48h-0.523c-0.114,0-0.195-0.075-0.244-0.227
			c-0.051-0.152-0.131-0.355-0.246-0.614c-0.213,0.563-0.912,0.841-2.1,0.841c-1.286,0-2.195-0.307-2.72-0.925
			c-0.462-0.545-0.688-1.448-0.675-2.707l0.037-7.261c0.012-1.473,0.27-2.469,0.77-2.991c0.45-0.462,1.257-0.694,2.42-0.694
			c1.389,0,2.33,0.334,2.832,0.999c0.376,0.474,0.568,1.277,0.582,2.407c0.037,1.06,0.049,1.838,0.037,2.336
			c0,0.203-0.082,0.303-0.243,0.303c-0.439,0.012-1.12,0.008-2.046-0.018c-0.149,0-0.231-0.088-0.244-0.267
			c-0.023-0.7-0.049-1.394-0.074-2.083c-0.088-0.949-0.318-1.424-0.694-1.424c-0.462,0-0.694,0.471-0.694,1.41v7.519
			c0,0.19,0.063,0.417,0.189,0.678c0.148,0.321,0.324,0.482,0.523,0.482c0.502,0,0.75-0.644,0.75-1.933v-0.911
			c0-0.155-0.049-0.228-0.15-0.214h-0.449c-0.113,0-0.169-0.056-0.169-0.162v-1.734c0-0.18,0.095-0.27,0.282-0.27
			c0.662,0,1.581,0.006,2.756,0.018c0.188,0,0.281,0.102,0.281,0.305V735.574z"/>
		<path fill="#010101" d="M462.197,735.335c0,0.263-0.082,0.394-0.246,0.394c-0.262,0-0.667,0.005-1.217,0.018
			c-0.477,0.012-0.832,0.019-1.07,0.019s-0.362-0.061-0.376-0.181c-0.012-0.117-0.019-0.876-0.019-2.271
			c0-0.238,0.07-0.356,0.206-0.356c0.138,0,0.488-0.009,1.053-0.026c0.562-0.02,1.012-0.027,1.349-0.027
			c0.199,0,0.301,0.059,0.301,0.18C462.19,733.414,462.197,734.166,462.197,735.335z"/>
		<path fill="#010101" d="M471.586,736.315c0.012,0.071-0.044,0.106-0.168,0.106c-0.176,0-0.501,0-0.977,0
			c-0.475-0.012-0.889-0.018-1.237-0.018c-0.114,0-0.257-0.387-0.431-1.163c-0.125-0.583-0.219-1.085-0.281-1.501
			c-0.013-0.085-0.083-0.127-0.207-0.127h-0.733c-0.087,0-0.142,0.042-0.167,0.127c-0.113,0.725-0.263,1.564-0.451,2.521
			c-0.05,0.106-0.107,0.161-0.168,0.161h-2.308c-0.201,0-0.28-0.072-0.243-0.215c0.424-2.439,0.85-4.883,1.275-7.334
			c0.838-4.71,1.336-7.073,1.5-7.084c0.676-0.035,1.35-0.035,2.025,0c0.15,0.011,0.614,2.374,1.391,7.084
			C470.805,731.354,471.199,733.835,471.586,736.315z M468.322,731.359c-0.188-1.359-0.307-2.04-0.357-2.04
			c-0.063,0-0.137,0.294-0.225,0.877c-0.049,0.382-0.098,0.771-0.15,1.163c-0.012,0.037,0.048,0.063,0.18,0.081
			c0.131,0.019,0.252,0.021,0.365,0.009C468.26,731.438,468.322,731.406,468.322,731.359z"/>
		<path fill="#010101" d="M480.131,735.34c0.063,0.261,0,0.398-0.188,0.41c-0.237,0.023-0.969,0.018-2.194-0.018
			c-0.138,0-0.22-0.16-0.244-0.483c-0.062-0.812-0.094-1.712-0.094-2.7c0-1.802-0.331-2.702-0.994-2.702
			c-0.087-0.022-0.161-0.022-0.224,0c-0.09,0.035-0.131,0.168-0.131,0.394c0,1.872-0.008,3.518-0.021,4.936
			c0,0.312-0.069,0.473-0.206,0.484c-0.676,0.072-1.319,0.085-1.934,0.035c-0.148-0.01-0.224-0.184-0.224-0.518v-13.757
			c0-0.216,0.112-0.321,0.339-0.321c0.692,0,1.637-0.006,2.832-0.019c0.78,0,1.44,0.155,1.981,0.464
			c0.592,0.346,0.888,0.805,0.888,1.377l-0.019,3.52c0,0.584-0.183,1.084-0.544,1.5c-0.25,0.299-0.533,0.502-0.845,0.609
			c-0.101,0.035-0.149,0.07-0.149,0.105c0,0.025,0.049,0.055,0.149,0.09c0.237,0.072,0.487,0.221,0.751,0.447
			c0.587,0.487,0.881,1.673,0.881,3.555C479.943,733.952,480.006,734.815,480.131,735.34z M477.43,724.425
			c0-0.785-0.274-1.161-0.824-1.125c-0.127,0.023-0.221,0.036-0.282,0.036c-0.112,0-0.168,0.1-0.168,0.303v3.133
			c0,0.334,0.087,0.506,0.262,0.516c0.062,0.012,0.138,0.012,0.226,0c0.275,0,0.463-0.129,0.563-0.391
			C477.354,726.514,477.43,725.691,477.43,724.425z"/>
	</g>
	
		<rect x="388.674" y="696.055" transform="matrix(0.0356 0.9994 -0.9994 0.0356 1095.8541 257.0729)" fill="#FFFFFF" width="52.111" height="0.557"/>
	
		<rect x="424.204" y="683.585" transform="matrix(0.0424 0.9991 -0.9991 0.0424 1105.0435 214.7704)" fill="#FFFFFF" width="32.553" height="0.557"/>
	<rect x="461.442" y="620.28" fill="#FFFFFF" width="0.556" height="40.62"/>
	
		<rect x="348.618" y="645.009" transform="matrix(0.08 0.9968 -0.9968 0.08 987.0298 221.1599)" fill="#FFFFFF" width="50.173" height="0.557"/>
	<rect x="444.706" y="720.91" fill="#FFFFFF" width="0.274" height="9.387"/>
	<rect x="437.409" y="720.078" fill="#FFFFFF" width="0.274" height="17.443"/>
	<rect x="467.76" y="720.385" fill="#FFFFFF" width="0.273" height="15.67"/>
	<rect x="475.954" y="718.84" fill="#FFFFFF" width="0.23" height="11.033"/>
	
		<rect x="452.347" y="513.311" transform="matrix(0.0018 1 -1 0.0018 967.3236 58.1713)" fill="#FFFFFF" width="4.354" height="0.61"/>
</g>
</svg>
